<svg width="726" height="775" viewBox="0 0 726 775" fill="none" xmlns="http://www.w3.org/2000/svg">
<g filter="url(#filter0_f_556_3006)">
<path d="M304.973 741.941C305.241 741.615 305.449 741.445 305.597 741.431C305.77 741.354 306.042 741.387 306.416 741.53L314.446 744.609C314.819 744.753 315.076 744.922 315.215 745.118C315.315 745.228 315.356 745.494 315.337 745.915L313.319 802.011C313.324 802.37 313.229 802.619 313.032 802.758C312.836 802.897 312.396 802.836 311.711 802.573L303.588 799.458C303.277 799.339 303.052 799.181 302.913 798.985C302.75 798.851 302.666 798.605 302.661 798.246L304.487 758.569L279.411 789.33C279.167 789.594 278.94 789.721 278.73 789.712C278.433 789.741 278.129 789.695 277.818 789.576L269.601 786.425C268.916 786.163 268.548 785.914 268.495 785.68C268.442 785.445 268.537 785.196 268.781 784.933L304.973 741.941Z" fill="#FACAD5" fill-opacity="0.5"/>
<path d="M246.866 786.302C248.584 787.19 249.743 788.503 250.346 790.241C250.858 792.007 250.685 793.719 249.828 795.377C248.939 797.094 247.626 798.254 245.889 798.856C244.092 799.428 242.335 799.269 240.618 798.381C238.9 797.493 237.756 796.15 237.184 794.353C236.613 792.556 236.771 790.799 237.659 789.082C238.517 787.424 239.844 786.309 241.641 785.738C243.407 785.225 245.149 785.413 246.866 786.302ZM281.011 729.657C281.307 729.81 281.512 730.066 281.626 730.425C281.712 730.695 281.678 730.978 281.525 731.274L257.311 778.082C257.158 778.378 256.947 778.569 256.677 778.654C256.318 778.769 255.99 778.749 255.694 778.596L248.233 774.737C247.937 774.583 247.761 774.342 247.706 774.014C247.561 773.714 247.565 773.415 247.719 773.119L271.933 726.312C272.086 726.015 272.327 725.84 272.655 725.785C272.956 725.64 273.254 725.644 273.55 725.797L281.011 729.657Z" fill="#FACAD5" fill-opacity="0.5"/>
<path d="M229.214 697.546C230.037 698.114 230.145 698.837 229.539 699.715L227.379 702.841C229.537 702.063 232.045 701.892 234.905 702.327C237.764 702.763 240.29 703.739 242.484 705.254C245.446 707.3 247.709 709.714 249.272 712.495C250.818 715.184 251.694 718.138 251.899 721.36C252.012 724.598 251.465 728.028 250.259 731.651C248.998 735.236 247.06 738.921 244.446 742.706C241.907 746.381 239.176 749.397 236.252 751.752C233.29 754.163 230.294 755.861 227.264 756.847C224.178 757.794 221.086 758.048 217.986 757.609C214.832 757.131 211.801 755.889 208.894 753.88C206.7 752.365 204.946 750.505 203.633 748.301C202.264 746.059 201.389 743.632 201.007 741.018L184.808 764.467C184.505 764.906 184.261 765.142 184.075 765.176C183.797 765.227 183.466 765.12 183.082 764.855L176.335 760.194C175.622 759.702 175.512 759.099 176.005 758.386L220.735 693.633C221.038 693.194 221.403 692.96 221.828 692.93C222.254 692.9 222.632 692.999 222.961 693.226L229.214 697.546ZM213.786 744.863C217.187 747.212 220.759 747.613 224.501 746.066C228.206 744.574 231.782 741.332 235.23 736.341C238.944 730.965 240.796 726.289 240.788 722.313C240.78 718.337 239.13 715.213 235.839 712.939C234.413 711.954 232.823 711.382 231.068 711.224C229.314 711.065 227.497 711.35 225.617 712.077C223.683 712.766 221.759 713.909 219.847 715.504C217.896 717.155 216.03 719.269 214.25 721.847C210.574 727.168 208.779 731.761 208.863 735.628C208.854 739.511 210.495 742.589 213.786 744.863Z" fill="#FACAD5" fill-opacity="0.5"/>
<path d="M163.387 671.912C163.759 671.529 164.157 671.359 164.582 671.4C164.959 671.395 165.267 671.508 165.506 671.74L189.094 694.675C191.969 691.241 193.522 687.636 193.751 683.861C193.935 680.134 192.497 676.783 189.438 673.809C187.861 672.275 185.882 670.724 183.503 669.154C181.077 667.632 178.54 666.56 175.891 665.937C175.371 665.803 175.179 665.57 175.316 665.238C175.452 664.906 175.707 664.549 176.078 664.167L180.888 659.22C181.307 658.789 181.704 658.525 182.08 658.425C182.455 658.325 182.974 658.365 183.637 658.545C185.815 659.174 188.046 660.274 190.331 661.845C192.568 663.369 194.69 665.108 196.698 667.06C202.625 672.822 205.398 678.959 205.018 685.471C204.544 691.983 200.961 698.681 194.268 705.564C191.759 708.145 188.961 710.353 185.875 712.188C182.789 714.023 179.625 715.269 176.381 715.928C173.089 716.54 169.811 716.421 166.546 715.571C163.281 714.721 160.215 712.902 157.347 710.113C154.431 707.278 152.504 704.335 151.565 701.284C150.579 698.186 150.347 695.078 150.869 691.959C151.391 688.84 152.573 685.759 154.416 682.716C156.259 679.673 158.552 676.741 161.294 673.921C161.619 673.587 162.015 673.227 162.481 672.844C162.899 672.414 163.201 672.103 163.387 671.912ZM163.752 702.952C165.043 704.206 166.469 705.035 168.03 705.437C169.592 705.84 171.172 705.935 172.772 705.724C174.372 705.513 175.992 705.043 177.632 704.313C179.224 703.536 180.697 702.643 182.05 701.634L165.631 685.67C164.702 686.626 163.847 687.84 163.066 689.313C162.237 690.739 161.669 692.232 161.361 693.792C161.006 695.4 160.982 697.003 161.287 698.602C161.592 700.2 162.414 701.65 163.752 702.952Z" fill="#FACAD5" fill-opacity="0.5"/>
<path d="M142.916 615.908C146.755 616.07 150.278 617.042 153.485 618.824C156.747 620.566 159.619 623.131 162.102 626.518C164.625 629.959 166.233 633.45 166.928 636.991C167.623 640.533 167.545 643.979 166.695 647.33C165.845 650.68 164.331 653.857 162.151 656.861C159.932 659.81 157.21 662.467 153.984 664.832C150.758 667.197 147.404 668.994 143.924 670.223C140.404 671.398 136.946 671.867 133.548 671.629C130.097 671.432 126.807 670.496 123.678 668.822C120.51 667.094 117.645 664.482 115.083 660.987C112.561 657.546 110.952 654.055 110.257 650.514C109.562 646.973 109.64 643.527 110.49 640.176C111.286 636.865 112.794 633.734 115.013 630.785C117.192 627.782 119.895 625.098 123.121 622.733C126.293 620.407 129.592 618.65 133.019 617.46C136.392 616.311 139.691 615.793 142.916 615.908ZM122.987 655.193C124.524 657.29 126.321 658.783 128.378 659.672C130.396 660.508 132.512 660.858 134.727 660.722C136.888 660.625 139.087 660.129 141.324 659.234C143.507 658.377 145.539 657.259 147.421 655.88C149.303 654.5 151.007 652.879 152.534 651.015C154.007 649.191 155.142 647.244 155.938 645.172C156.734 643.101 157.037 640.977 156.848 638.802C156.619 636.572 155.735 634.409 154.198 632.312C152.661 630.215 150.884 628.749 148.866 627.914C146.809 627.025 144.673 626.648 142.458 626.784C140.243 626.92 138.044 627.416 135.861 628.272C133.625 629.168 131.565 630.305 129.684 631.685C127.856 633.025 126.205 634.607 124.732 636.431C123.204 638.295 122.07 640.242 121.328 642.274C120.532 644.346 120.248 646.496 120.477 648.726C120.613 650.94 121.45 653.096 122.987 655.193Z" fill="#FACAD5" fill-opacity="0.5"/>
<path d="M120.762 547.501C121.721 549.989 122.115 552.588 121.944 555.297C121.774 558.007 121.086 560.486 119.881 562.737L136.491 556.337C136.989 556.145 137.324 556.088 137.496 556.164C137.731 556.217 137.932 556.461 138.099 556.896L141.084 564.641C141.227 565.014 141.242 565.33 141.127 565.589C141.075 565.823 140.8 566.037 140.302 566.228L77.0355 590.604C76.0401 590.988 75.3627 590.713 75.0031 589.78L72.2348 582.595C71.8992 581.724 72.2291 581.097 73.2244 580.713L76.5837 579.419C74.1085 578.372 71.9538 576.952 70.1196 575.158C68.2854 573.364 66.8769 571.192 65.8942 568.641C64.5999 565.282 64.1026 562.044 64.4023 558.928C64.6158 555.774 65.557 552.839 67.2258 550.124C68.8707 547.347 71.2241 544.833 74.2861 542.582C77.3241 540.268 80.9893 538.284 85.2817 536.631C89.4497 535.025 93.4051 534.072 97.1479 533.773C100.891 533.474 104.304 533.803 107.387 534.758C110.446 535.651 113.113 537.196 115.387 539.391C117.7 541.501 119.492 544.204 120.762 547.501ZM75.8076 566.001C76.4308 567.618 77.4224 568.986 78.7824 570.106C80.0802 571.249 81.7224 572.081 83.709 572.601C85.6095 573.083 87.8113 573.235 90.3145 573.057C92.7937 572.816 95.4952 572.132 98.4191 571.006C104.516 568.657 108.606 565.831 110.691 562.527C112.776 559.223 113.123 555.767 111.733 552.159C110.247 548.302 107.553 545.946 103.652 545.092C99.7507 544.237 94.9383 544.912 89.2151 547.118C83.1809 549.443 79.0782 552.238 76.9071 555.503C74.736 558.769 74.3695 562.268 75.8076 566.001Z" fill="#FACAD5" fill-opacity="0.5"/>
<path d="M100.986 481.451C101.152 482.302 100.843 482.804 100.058 482.957L68.5535 489.113C63.6463 490.072 60.221 491.489 58.2777 493.363C56.2562 495.184 55.5459 497.633 56.1468 500.708C57.4892 507.578 60.9566 511.418 66.5489 512.227L104.334 504.843C105.119 504.69 105.589 505.006 105.742 505.791L107.315 513.839C107.379 514.166 107.305 514.486 107.095 514.799C106.937 515.033 106.694 515.183 106.367 515.247L29.0299 530.359C28.7027 530.423 28.4218 530.376 28.1872 530.218C27.8743 530.007 27.6859 529.738 27.622 529.411L26.0494 521.363C25.9855 521.036 26.0652 520.749 26.2886 520.502C26.4337 520.202 26.6698 520.02 26.997 519.956L53.3977 514.797C51.704 513.429 50.221 511.749 48.9485 509.756C47.5978 507.711 46.6667 505.379 46.1553 502.762C43.6238 489.807 50.3731 481.764 66.4033 478.631L98.0056 472.456C98.3327 472.392 98.62 472.472 98.8675 472.695C99.1675 472.84 99.3495 473.076 99.4135 473.403L100.986 481.451Z" fill="#FACAD5" fill-opacity="0.5"/>
<path d="M89.4087 415.869C92.4519 418.214 94.7703 421.039 96.364 424.344C98.0244 427.648 98.8927 431.399 98.9691 435.599C99.0467 439.865 98.3487 443.645 96.875 446.939C95.4013 450.233 93.3514 453.004 90.7252 455.252C88.0989 457.5 85.0298 459.223 81.5176 460.42C78.0043 461.551 74.2479 462.153 70.2486 462.225C66.2492 462.298 62.4735 461.833 58.9214 460.831C55.368 459.762 52.2715 458.152 49.632 455.999C46.9257 453.848 44.777 451.187 43.1857 448.015C41.5932 444.777 40.7576 440.992 40.6788 436.659C40.6012 432.393 41.2992 428.613 42.7729 425.319C44.2465 422.025 46.2965 419.254 48.9227 417.006C51.4823 414.759 54.5187 413.07 58.0321 411.939C61.5442 410.742 65.3 410.107 69.2993 410.034C73.232 409.963 76.9411 410.429 80.4266 411.432C83.8454 412.437 86.8395 413.916 89.4087 415.869ZM50.4771 436.481C50.5244 439.08 51.1322 441.336 52.3005 443.249C53.4676 445.094 54.9952 446.6 56.8834 447.766C58.7049 448.933 60.7876 449.795 63.1315 450.353C65.4087 450.912 67.7138 451.17 70.0467 451.127C72.3797 451.085 74.7072 450.742 77.0292 450.1C79.2846 449.459 81.3345 448.522 83.1791 447.288C85.0236 446.054 86.4955 444.494 87.5947 442.607C88.6927 440.653 89.218 438.377 89.1707 435.777C89.1235 433.177 88.5163 430.955 87.3492 429.109C86.1809 427.197 84.6526 425.657 82.7644 424.492C80.8763 423.326 78.7936 422.463 76.5164 421.905C74.1725 421.347 71.8341 421.09 69.5012 421.132C67.2349 421.173 64.974 421.515 62.7186 422.156C60.3966 422.798 58.3467 423.736 56.5688 424.968C54.7242 426.202 53.253 427.795 52.155 429.749C50.9891 431.637 50.4298 433.881 50.4771 436.481Z" fill="#FACAD5" fill-opacity="0.5"/>
<path d="M101.422 371.811C101.901 372.812 102.243 374.367 102.449 376.475C102.729 378.526 102.724 380.709 102.434 383.024C102.085 385.803 101.212 387.944 99.8134 389.448C98.4814 390.961 97.0049 392.018 95.3839 392.621C93.5478 393.332 91.4597 393.641 89.1197 393.549C86.7796 393.457 83.6251 393.162 79.6562 392.664L54.7515 389.539L53.7182 397.774C53.6767 398.105 53.5401 398.39 53.3085 398.63C53.019 398.795 52.7089 398.857 52.3781 398.815L44.5396 397.832C44.2088 397.79 43.9567 397.658 43.7832 397.435C43.5518 397.137 43.4568 396.823 43.4983 396.492L44.5316 388.256L30.6406 386.513C30.3098 386.472 30.0618 386.306 29.8966 386.017C29.6652 385.719 29.5703 385.405 29.6118 385.074L30.6202 377.037C30.67 376.64 30.8396 376.359 31.1291 376.194C31.3608 375.954 31.642 375.855 31.9727 375.897L45.8638 377.64L47.059 368.114C47.1005 367.784 47.2659 367.536 47.5554 367.37C47.7871 367.131 48.0683 367.032 48.399 367.073L56.2376 368.057C56.5683 368.098 56.8494 368.268 57.0808 368.566C57.2543 368.789 57.3203 369.066 57.2788 369.397L56.0836 378.922L81.6829 382.134C86.181 382.698 89.0378 382.956 90.2534 382.907C91.4772 382.792 92.2837 382.255 92.6728 381.296C93.0619 380.337 93.2691 379.22 93.2945 377.947C93.2701 377.071 93.2251 376.091 93.1595 375.007C93.0277 373.916 92.8462 372.952 92.6151 372.117C92.5243 371.77 92.5533 371.538 92.7022 371.423C92.7849 371.299 93.0992 371.204 93.645 371.138L100.293 371.166C100.765 371.158 101.141 371.373 101.422 371.811Z" fill="#FACAD5" fill-opacity="0.5"/>
<path d="M107.73 320.009C109.988 323.118 111.415 326.482 112.012 330.102C112.672 333.74 112.447 337.584 111.336 341.634C110.206 345.749 108.47 349.178 106.127 351.923C103.784 354.667 101.035 356.747 97.8817 358.163C94.7279 359.579 91.2973 360.366 87.5901 360.524C83.9004 360.617 80.1269 360.135 76.2695 359.076C72.4121 358.018 68.9209 356.507 65.7958 354.543C62.6884 352.515 60.1721 350.096 58.247 347.287C56.2576 344.459 54.947 341.3 54.3152 337.808C53.701 334.252 53.9673 330.385 55.1141 326.206C56.2432 322.091 57.9794 318.662 60.3225 315.917C62.6657 313.173 65.4142 311.093 68.568 309.677C71.6575 308.244 75.047 307.48 78.7367 307.386C82.444 307.229 86.2263 307.679 90.0837 308.737C93.8768 309.778 97.3037 311.272 100.365 313.218C103.361 315.146 105.816 317.41 107.73 320.009ZM64.5647 328.799C63.8766 331.307 63.8233 333.642 64.4045 335.807C65.0035 337.907 66.0442 339.782 67.5268 341.434C68.945 343.067 70.6998 344.482 72.7912 345.678C74.8183 346.857 76.9569 347.755 79.207 348.372C81.4572 348.99 83.7867 349.318 86.1956 349.357C88.5403 349.378 90.7714 349.057 92.8891 348.394C95.0068 347.73 96.8591 346.649 98.446 345.149C100.051 343.584 101.197 341.548 101.885 339.041C102.573 336.534 102.618 334.23 102.019 332.13C101.437 329.966 100.405 328.058 98.9229 326.407C97.4403 324.755 95.6855 323.341 93.6585 322.162C91.5671 320.966 89.3963 320.059 87.1462 319.442C84.9603 318.842 82.6951 318.531 80.3505 318.51C77.9415 318.471 75.7104 318.792 73.657 319.473C71.5393 320.136 69.6782 321.25 68.0736 322.815C66.4224 324.297 65.2528 326.292 64.5647 328.799Z" fill="#FACAD5" fill-opacity="0.5"/>
<path d="M64.6349 253.011C65.6739 253.464 66.0125 253.939 65.6506 254.436C65.1478 255.089 64.6621 255.787 64.1938 256.528C63.6643 257.242 63.2398 257.967 62.9203 258.7C62.2547 260.228 62.1727 261.501 62.6744 262.52C63.1149 263.511 63.8492 264.413 64.8774 265.225C65.4353 265.613 66.2072 266.095 67.193 266.67C68.1787 267.244 69.3134 267.811 70.5969 268.371L76.7393 271.046L80.5734 262.245C80.8929 261.512 81.4193 261.305 82.1528 261.624L89.212 264.7C89.5176 264.833 89.7394 265.075 89.8774 265.426C89.9809 265.689 89.966 265.973 89.8329 266.279L85.9989 275.08L126.429 292.693C127.163 293.012 127.37 293.539 127.05 294.272L123.775 301.79C123.456 302.523 122.929 302.73 122.196 302.411L81.7655 284.798L78.4107 292.499C78.2776 292.805 78.0661 293.04 77.7762 293.204C77.4519 293.281 77.1369 293.253 76.8313 293.12L69.772 290.045C69.4664 289.912 69.2619 289.713 69.1584 289.45C69.0204 289.099 69.018 288.771 69.1511 288.465L72.466 280.856L66.9653 278.46C64.0316 277.182 61.4527 275.84 59.2289 274.435C57.0316 272.969 55.2558 271.286 53.9015 269.387C52.7995 267.744 52.1456 265.823 51.9399 263.624C51.6996 261.338 52.1785 258.82 53.3767 256.07C53.9092 254.847 54.52 253.695 55.2093 252.614C55.864 251.445 56.4601 250.577 56.9974 250.012C57.4283 249.69 57.9493 249.663 58.5605 249.929L64.6349 253.011Z" fill="#FACAD5" fill-opacity="0.5"/>
<path d="M152.352 233.212C153.641 236.831 154.061 240.462 153.612 244.103C153.22 247.78 151.919 251.404 149.71 254.976C147.466 258.605 144.832 261.405 141.81 263.377C138.788 265.349 135.564 266.569 132.139 267.038C128.714 267.506 125.201 267.293 121.6 266.399C118.033 265.448 114.549 263.92 111.147 261.816C107.745 259.712 104.822 257.278 102.378 254.512C99.9691 251.69 98.2375 248.659 97.1833 245.421C96.0724 242.147 95.7064 238.746 96.0854 235.218C96.4994 231.633 97.846 227.998 100.125 224.312C102.369 220.684 105.002 217.883 108.025 215.911C111.047 213.94 114.271 212.719 117.696 212.251C121.064 211.747 124.532 211.971 128.098 212.922C131.699 213.817 135.201 215.316 138.603 217.42C141.948 219.489 144.814 221.888 147.202 224.619C149.532 227.314 151.249 230.179 152.352 233.212ZM108.46 229.467C107.093 231.678 106.382 233.904 106.329 236.144C106.312 238.328 106.781 240.421 107.737 242.424C108.637 244.391 109.921 246.243 111.59 247.981C113.203 249.683 115.001 251.148 116.986 252.376C118.97 253.603 121.112 254.575 123.412 255.292C125.656 255.974 127.887 256.295 130.106 256.256C132.324 256.218 134.407 255.702 136.352 254.711C138.333 253.663 140.007 252.033 141.375 249.822C142.742 247.61 143.435 245.413 143.453 243.229C143.506 240.989 143.054 238.867 142.098 236.865C141.141 234.862 139.857 233.01 138.245 231.308C136.576 229.57 134.749 228.088 132.764 226.86C130.837 225.668 128.751 224.731 126.508 224.049C124.207 223.332 121.976 223.011 119.814 223.085C117.596 223.123 115.496 223.667 113.515 224.715C111.513 225.672 109.828 227.256 108.46 229.467Z" fill="#FACAD5" fill-opacity="0.5"/>
<path d="M169.967 223.895C169.505 224.464 168.963 224.497 168.342 223.994L107.117 174.386C106.858 174.176 106.714 173.93 106.684 173.649C106.645 173.274 106.73 172.957 106.94 172.698L112.228 166.171C112.438 165.912 112.71 165.789 113.043 165.802C113.366 165.72 113.657 165.785 113.916 165.995L175.141 215.603C175.4 215.812 175.523 216.084 175.511 216.417C175.592 216.74 175.528 217.031 175.318 217.29L169.967 223.895Z" fill="#FACAD5" fill-opacity="0.5"/>
<path d="M142.347 155.265C141.015 156.666 139.43 157.413 137.594 157.506C135.755 157.505 134.159 156.861 132.806 155.574C131.405 154.242 130.659 152.657 130.566 150.821C130.518 148.936 131.161 147.293 132.494 145.892C133.826 144.491 135.435 143.767 137.32 143.72C139.205 143.673 140.848 144.316 142.249 145.648C143.601 146.935 144.301 148.52 144.348 150.405C144.347 152.245 143.68 153.864 142.347 155.265ZM187.204 203.869C186.974 204.111 186.671 204.236 186.294 204.246C186.011 204.253 185.749 204.142 185.508 203.912L147.324 167.59C147.082 167.36 146.958 167.104 146.951 166.821C146.942 166.444 147.052 166.135 147.281 165.893L153.071 159.807C153.301 159.566 153.581 159.464 153.912 159.503C154.241 159.448 154.526 159.535 154.767 159.765L192.951 196.087C193.193 196.316 193.294 196.597 193.255 196.928C193.311 197.257 193.223 197.542 192.994 197.783L187.204 203.869Z" fill="#FACAD5" fill-opacity="0.5"/>
<path d="M232.709 152.744C232.742 156.586 231.95 160.153 230.333 163.447C228.758 166.792 226.342 169.791 223.084 172.442C219.776 175.136 216.37 176.919 212.869 177.793C209.368 178.666 205.922 178.763 202.532 178.084C199.143 177.405 195.893 176.053 192.783 174.028C189.726 171.961 186.934 169.377 184.409 166.275C181.883 163.173 179.919 159.915 178.515 156.501C177.164 153.046 176.52 149.615 176.585 146.21C176.607 142.753 177.376 139.42 178.889 136.21C180.455 132.959 182.917 129.965 186.278 127.23C189.587 124.536 192.992 122.753 196.493 121.879C199.995 121.006 203.44 120.909 206.83 121.588C210.178 122.216 213.38 123.563 216.438 125.629C219.548 127.654 222.365 130.217 224.891 133.32C227.374 136.37 229.296 139.576 230.658 142.938C231.977 146.248 232.661 149.517 232.709 152.744ZM192.465 134.83C190.449 136.471 189.049 138.342 188.265 140.441C187.533 142.498 187.291 144.63 187.538 146.835C187.744 148.989 188.351 151.159 189.359 153.348C190.324 155.484 191.544 157.458 193.017 159.267C194.49 161.077 196.196 162.697 198.134 164.127C200.03 165.507 202.033 166.541 204.142 167.231C206.251 167.921 208.387 168.116 210.551 167.817C212.765 167.475 214.881 166.484 216.897 164.842C218.914 163.201 220.288 161.351 221.02 159.294C221.804 157.194 222.072 155.042 221.824 152.837C221.576 150.632 220.969 148.461 220.004 146.324C218.996 144.136 217.755 142.137 216.282 140.327C214.851 138.569 213.188 137.001 211.291 135.622C209.353 134.191 207.35 133.157 205.283 132.518C203.174 131.828 201.012 131.654 198.797 131.996C196.592 132.244 194.481 133.188 192.465 134.83Z" fill="#FACAD5" fill-opacity="0.5"/>
<path d="M296.739 124.658C296.786 125.076 296.763 125.344 296.67 125.461C296.605 125.638 296.392 125.811 296.029 125.979L288.227 129.598C287.864 129.766 287.564 129.832 287.327 129.795C287.178 129.791 286.958 129.635 286.669 129.328L247.815 88.8169C247.553 88.5706 247.441 88.3287 247.478 88.0911C247.515 87.8536 247.866 87.5805 248.531 87.272L256.423 83.611C256.726 83.4708 256.996 83.419 257.233 83.4558C257.443 83.4321 257.678 83.5434 257.939 83.7897L285.143 112.73L280.527 73.3119C280.508 72.9534 280.575 72.7019 280.729 72.5572C280.914 72.3241 281.158 72.1373 281.461 71.9971L289.444 68.2941C290.109 67.9855 290.544 67.8939 290.749 68.0192C290.954 68.1445 291.067 68.3864 291.086 68.7449L296.739 124.658Z" fill="#FACAD5" fill-opacity="0.5"/>
<path d="M305.364 52.063C303.53 52.6769 301.78 52.5949 300.114 51.8171C298.489 50.9549 297.381 49.6388 296.788 47.8687C296.174 46.0354 296.256 44.2855 297.034 42.619C297.875 40.9313 299.212 39.7806 301.046 39.1667C302.879 38.5529 304.639 38.6665 306.327 39.5075C308.015 40.3485 309.165 41.6857 309.779 43.519C310.372 45.289 310.248 47.0179 309.407 48.7056C308.545 50.3301 307.197 51.4492 305.364 52.063ZM322.241 116.013C321.925 116.119 321.598 116.088 321.261 115.92C321.008 115.794 320.828 115.572 320.722 115.256L303.99 65.2832C303.884 64.9671 303.894 64.6825 304.02 64.4294C304.189 64.0918 304.431 63.8701 304.747 63.7643L312.712 61.0973C313.028 60.9915 313.323 61.0332 313.598 61.2226C313.914 61.3276 314.125 61.5381 314.231 61.8542L330.963 111.827C331.069 112.143 331.027 112.439 330.838 112.713C330.733 113.029 330.523 113.24 330.207 113.346L322.241 116.013Z" fill="#FACAD5" fill-opacity="0.5"/>
<path d="M381.356 101.199C380.375 101.394 379.781 100.968 379.573 99.922L378.833 96.1948C377.889 98.2853 376.265 100.205 373.961 101.954C371.658 103.702 369.198 104.836 366.582 105.356C363.051 106.057 359.744 106 356.659 105.185C353.653 104.422 350.923 102.993 348.468 100.898C346.065 98.7239 343.984 95.9426 342.223 92.5538C340.528 89.1521 339.233 85.1952 338.337 80.6833C337.468 76.3021 337.205 72.2421 337.551 68.5033C337.883 64.6991 338.751 61.3664 340.154 58.5051C341.622 55.6308 343.593 53.2344 346.067 51.316C348.606 49.3846 351.609 48.0749 355.074 47.3869C357.69 46.8676 360.246 46.9039 362.742 47.4958C365.304 48.0747 367.656 49.1371 369.798 50.6829L364.248 22.7285C364.144 22.2053 364.145 21.8654 364.25 21.7087C364.407 21.4735 364.715 21.3106 365.172 21.2197L373.215 19.623C374.065 19.4542 374.575 19.7949 374.744 20.6449L390.068 97.8385C390.172 98.3616 390.086 98.7864 389.811 99.1129C389.536 99.4394 389.203 99.6415 388.81 99.7194L381.356 101.199ZM358.139 57.1774C354.085 57.9823 351.31 60.2664 349.814 64.0297C348.306 67.7276 348.142 72.5518 349.323 78.5024C350.595 84.9106 352.661 89.4962 355.52 92.2589C358.38 95.0217 361.771 96.0136 365.695 95.2347C367.395 94.8972 368.912 94.1541 370.248 93.0055C371.583 91.8568 372.644 90.3548 373.431 88.4993C374.284 86.6309 374.803 84.4547 374.99 81.9709C375.163 79.4216 374.945 76.6103 374.335 73.5369C373.076 67.1941 371.029 62.7066 368.196 60.0746C365.415 57.3643 362.063 56.3985 358.139 57.1774Z" fill="#FACAD5" fill-opacity="0.5"/>
<path d="M445.592 71.8054C445.608 72.3386 445.453 72.7432 445.128 73.0195C444.869 73.2938 444.573 73.4358 444.24 73.4455L411.354 74.4038C411.817 78.8589 413.323 82.4832 415.872 85.2768C418.419 88.0038 421.825 89.3051 426.09 89.1809C428.289 89.1168 430.781 88.7774 433.564 88.1628C436.345 87.4814 438.882 86.4071 441.173 84.9397C441.632 84.6596 441.933 84.6842 442.076 85.0135C442.219 85.3428 442.298 85.774 442.313 86.3071L442.514 93.2042C442.532 93.8039 442.446 94.2733 442.255 94.6123C442.065 94.9513 441.675 95.2962 441.085 95.6469C439.117 96.7713 436.774 97.6066 434.055 98.1527C431.403 98.6968 428.678 99.0097 425.879 99.0912C417.616 99.332 411.28 97.0489 406.871 92.242C402.527 87.3664 400.216 80.1307 399.936 70.5348C399.831 66.9363 400.195 63.3909 401.027 59.8985C401.859 56.4061 403.168 53.2666 404.954 50.4801C406.807 47.6916 409.175 45.4217 412.059 43.6703C414.942 41.9189 418.383 40.9849 422.382 40.8684C426.446 40.7499 429.901 41.4163 432.744 42.8674C435.654 44.3166 438.047 46.3144 439.922 48.8609C441.797 51.4074 443.185 54.4015 444.085 57.8434C444.986 61.2853 445.493 64.9721 445.608 68.9038C445.622 69.3702 445.604 69.9043 445.555 70.506C445.572 71.1057 445.585 71.5389 445.592 71.8054ZM423.061 50.4527C421.262 50.5051 419.674 50.9515 418.298 51.792C416.922 52.6324 415.752 53.7003 414.79 54.9955C413.827 56.2908 413.037 57.7811 412.419 59.4665C411.868 61.1499 411.483 62.8285 411.265 64.5022L434.155 63.8352C434.117 62.5024 433.841 61.0432 433.328 59.4574C432.881 57.8698 432.205 56.4222 431.3 55.1147C430.393 53.7405 429.26 52.6064 427.9 51.7123C426.54 50.8182 424.927 50.3983 423.061 50.4527Z" fill="#FACAD5" fill-opacity="0.5"/>
<path d="M500.041 96.1127C497.252 98.7548 494.101 100.607 490.589 101.668C487.067 102.795 483.227 103.07 479.066 102.494C474.84 101.908 471.214 100.632 468.189 98.6643C465.164 96.6971 462.745 94.2417 460.932 91.2983C459.118 88.3549 457.893 85.0554 457.256 81.4C456.684 77.7537 456.673 73.9494 457.222 69.9873C457.771 66.0252 458.816 62.3674 460.358 59.0139C461.966 55.6696 464.038 52.8608 466.574 50.5874C469.119 48.248 472.082 46.5385 475.462 45.459C478.908 44.3886 482.777 44.1509 487.07 44.7457C491.296 45.3314 494.922 46.6079 497.947 48.5752C500.972 50.5424 503.391 52.9978 505.204 55.9412C507.027 58.8186 508.224 62.0805 508.795 65.7268C509.433 69.3822 509.477 73.191 508.928 77.1532C508.388 81.0493 507.352 84.641 505.819 87.9284C504.296 91.1498 502.37 93.8779 500.041 96.1127ZM485.724 54.453C483.149 54.096 480.826 54.3462 478.755 55.2034C476.751 56.0697 475.026 57.345 473.581 59.0293C472.145 60.6475 470.97 62.5711 470.056 64.8C469.15 66.9628 468.537 69.1998 468.217 71.5111C467.897 73.8223 467.873 76.1747 468.147 78.5684C468.431 80.8959 469.038 83.0666 469.971 85.0803C470.903 87.094 472.216 88.7903 473.909 90.1692C475.669 91.5572 477.836 92.4296 480.412 92.7866C482.987 93.1435 485.277 92.8888 487.282 92.0224C489.352 91.1652 491.11 89.8945 492.555 88.2102C494 86.526 495.175 84.6024 496.08 82.4396C496.995 80.2107 497.613 77.9406 497.933 75.6294C498.244 73.3842 498.258 71.0978 497.975 68.7702C497.701 66.3766 497.093 64.206 496.152 62.2583C495.219 60.2445 493.873 58.5437 492.114 57.1557C490.43 55.7108 488.3 54.8099 485.724 54.453Z" fill="#FACAD5" fill-opacity="0.5"/>
<path d="M564.564 127.849C562.11 126.804 559.971 125.277 558.145 123.268C556.319 121.259 555.019 119.039 554.243 116.607L547.269 132.984C547.06 133.475 546.869 133.755 546.694 133.826C546.493 133.958 546.177 133.932 545.748 133.749L538.111 130.498C537.743 130.341 537.507 130.131 537.401 129.869C537.269 129.668 537.308 129.322 537.517 128.831L564.078 66.4508C564.496 65.4694 565.165 65.1745 566.085 65.5663L573.169 68.5828C574.028 68.9485 574.248 69.622 573.831 70.6034L572.42 73.9157C574.895 72.8681 577.415 72.3107 579.98 72.2434C582.544 72.1761 585.084 72.6779 587.599 73.7487C590.911 75.159 593.581 77.0567 595.609 79.4417C597.724 81.7915 599.175 84.5105 599.961 87.5988C600.809 90.7131 600.975 94.153 600.458 97.9183C600.003 101.71 598.875 105.722 597.072 109.954C595.323 114.064 593.252 117.566 590.86 120.46C588.468 123.354 585.856 125.575 583.024 127.123C580.252 128.696 577.287 129.535 574.127 129.638C571.002 129.829 567.814 129.233 564.564 127.849ZM582.591 82.7024C580.996 82.0234 579.324 81.7822 577.573 81.9789C575.849 82.1143 574.109 82.7136 572.352 83.777C570.682 84.8051 569.04 86.2796 567.425 88.2004C565.871 90.1474 564.481 92.5624 563.253 95.4452C560.694 101.456 559.874 106.36 560.793 110.157C561.712 113.954 563.951 116.61 567.508 118.125C571.311 119.744 574.878 119.451 578.208 117.246C581.538 115.041 584.404 111.117 586.807 105.474C589.34 99.5245 590.191 94.6335 589.359 90.8013C588.527 86.9691 586.271 84.2695 582.591 82.7024Z" fill="#FACAD5" fill-opacity="0.5"/>
<path d="M625.739 159.648C625.013 159.175 624.868 158.604 625.305 157.933L642.825 131.036C645.554 126.847 646.922 123.402 646.93 120.702C647.031 117.983 645.768 115.768 643.143 114.058C637.277 110.237 632.107 110.052 627.632 113.502L606.619 145.762C606.183 146.433 605.629 146.55 604.959 146.113L598.088 141.637C597.809 141.456 597.63 141.18 597.552 140.811C597.494 140.534 597.555 140.256 597.737 139.977L640.745 73.9487C640.927 73.6694 641.157 73.5005 641.434 73.4421C641.802 73.3642 642.127 73.4162 642.406 73.5981L649.277 78.0736C649.556 78.2555 649.707 78.5128 649.729 78.8454C649.843 79.1585 649.809 79.4548 649.627 79.7341L634.946 102.274C637.106 102.011 639.345 102.116 641.661 102.591C644.07 103.046 646.392 104.001 648.626 105.457C659.687 112.661 660.76 123.106 651.845 136.792L634.271 163.773C634.089 164.053 633.832 164.203 633.499 164.225C633.186 164.34 632.89 164.306 632.61 164.124L625.739 159.648Z" fill="#FACAD5" fill-opacity="0.5"/>
<path d="M680.868 197.009C677.066 197.56 673.424 197.256 669.943 196.099C666.415 194.99 663.118 193.001 660.051 190.131C656.936 187.216 654.709 184.083 653.371 180.732C652.033 177.38 651.472 173.979 651.687 170.529C651.902 167.079 652.803 163.676 654.389 160.322C656.024 157.013 658.208 153.898 660.941 150.977C663.674 148.056 666.637 145.67 669.829 143.818C673.071 142.012 676.383 140.912 679.766 140.516C683.194 140.072 686.601 140.383 689.985 141.449C693.418 142.561 696.717 144.598 699.881 147.558C702.997 150.473 705.224 153.606 706.562 156.958C707.899 160.309 708.461 163.71 708.245 167.16C708.076 170.562 707.173 173.917 705.538 177.226C703.952 180.581 701.792 183.718 699.06 186.639C696.372 189.512 693.455 191.849 690.308 193.652C687.206 195.406 684.06 196.525 680.868 197.009ZM693.186 154.715C691.287 152.938 689.245 151.803 687.059 151.31C684.921 150.863 682.777 150.91 680.625 151.454C678.519 151.948 676.45 152.843 674.418 154.137C672.431 155.382 670.641 156.857 669.047 158.56C667.453 160.264 666.078 162.173 664.922 164.287C663.811 166.352 663.056 168.476 662.657 170.659C662.258 172.842 662.353 174.985 662.942 177.088C663.58 179.236 664.848 181.199 666.746 182.975C668.645 184.751 670.663 185.863 672.801 186.311C674.987 186.804 677.155 186.779 679.307 186.236C681.459 185.692 683.528 184.798 685.514 183.553C687.547 182.259 689.36 180.76 690.954 179.056C692.503 177.401 693.832 175.541 694.942 173.476C696.098 171.362 696.853 169.238 697.207 167.103C697.606 164.92 697.486 162.755 696.849 160.606C696.305 158.455 695.084 156.491 693.186 154.715Z" fill="#FACAD5" fill-opacity="0.5"/>
<path d="M704.124 236.31C703.073 235.957 701.718 235.12 700.062 233.799C698.395 232.572 696.831 231.048 695.372 229.228C693.621 227.043 692.692 224.925 692.586 222.874C692.428 220.865 692.697 219.068 693.393 217.485C694.162 215.673 695.394 213.959 697.09 212.344C698.786 210.728 701.194 208.67 704.315 206.168L723.9 190.47L718.709 183.994C718.501 183.734 718.391 183.437 718.381 183.104C718.464 182.781 718.635 182.515 718.895 182.307L725.059 177.366C725.32 177.158 725.59 177.069 725.871 177.1C726.246 177.141 726.538 177.292 726.746 177.552L731.937 184.028L742.861 175.272C743.121 175.064 743.413 175.001 743.736 175.084C744.111 175.125 744.402 175.276 744.611 175.536L749.677 181.857C749.927 182.169 750.01 182.486 749.927 182.809C749.938 183.142 749.813 183.413 749.553 183.621L738.629 192.377L744.633 199.868C744.842 200.128 744.905 200.42 744.822 200.742C744.832 201.076 744.708 201.346 744.447 201.555L738.283 206.496C738.023 206.704 737.706 206.788 737.331 206.747C737.05 206.716 736.805 206.57 736.596 206.31L730.592 198.819L710.461 214.955C706.924 217.79 704.749 219.661 703.938 220.568C703.168 221.526 702.992 222.479 703.41 223.426C703.827 224.373 704.484 225.299 705.38 226.204C706.026 226.797 706.761 227.447 707.584 228.154C708.459 228.82 709.277 229.361 710.037 229.776C710.35 229.953 710.496 230.135 710.475 230.322C710.507 230.468 710.356 230.76 710.023 231.197L705.373 235.949C705.051 236.293 704.635 236.413 704.124 236.31Z" fill="#FACAD5" fill-opacity="0.5"/>
<path d="M736.91 276.91C733.106 276.365 729.698 275.047 726.684 272.954C723.613 270.895 721.011 268.057 718.878 264.438C716.712 260.763 715.459 257.129 715.121 253.536C714.783 249.943 715.204 246.522 716.384 243.273C717.564 240.023 719.388 237.013 721.857 234.243C724.359 231.529 727.333 229.157 730.779 227.126C734.225 225.095 737.74 223.641 741.326 222.766C744.945 221.948 748.433 221.826 751.79 222.401C755.205 222.942 758.385 224.202 761.331 226.18C764.311 228.215 766.901 231.099 769.101 234.832C771.268 238.508 772.521 242.142 772.859 245.735C773.197 249.327 772.776 252.748 771.596 255.998C770.473 259.213 768.661 262.178 766.159 264.891C763.69 267.662 760.733 270.063 757.287 272.094C753.899 274.091 750.441 275.511 746.913 276.353C743.442 277.16 740.108 277.346 736.91 276.91ZM760.659 239.809C759.339 237.569 757.7 235.904 755.741 234.814C753.817 233.782 751.746 233.223 749.529 233.137C747.369 233.017 745.132 233.291 742.817 233.959C740.559 234.594 738.426 235.503 736.416 236.688C734.406 237.873 732.548 239.316 730.842 241.018C729.195 242.686 727.871 244.511 726.873 246.493C725.874 248.474 725.36 250.557 725.332 252.741C725.337 254.982 726 257.222 727.321 259.462C728.641 261.702 730.263 263.338 732.188 264.37C734.146 265.46 736.234 266.048 738.451 266.134C740.668 266.22 742.906 265.945 745.163 265.311C747.478 264.643 749.64 263.717 751.65 262.532C753.603 261.381 755.403 259.971 757.051 258.303C758.757 256.601 760.08 254.777 761.021 252.829C762.02 250.847 762.516 248.736 762.511 246.495C762.597 244.277 761.98 242.049 760.659 239.809Z" fill="#FACAD5" fill-opacity="0.5"/>
<path d="M740.329 616.508C739.854 616.266 739.573 615.936 739.487 615.518C739.37 615.159 739.388 614.831 739.539 614.534L754.47 585.217C750.338 583.487 746.436 583.071 742.762 583.968C739.147 584.895 736.372 587.26 734.436 591.062C733.437 593.022 732.54 595.371 731.745 598.108C731.009 600.875 730.735 603.616 730.924 606.331C730.949 606.868 730.784 607.12 730.426 607.087C730.069 607.055 729.652 606.918 729.177 606.676L723.028 603.544C722.494 603.272 722.123 602.971 721.917 602.642C721.711 602.312 721.595 601.805 721.57 601.119C721.528 598.852 721.918 596.395 722.743 593.748C723.537 591.16 724.57 588.618 725.841 586.123C729.592 578.757 734.634 574.292 740.966 572.729C747.328 571.256 754.786 572.697 763.341 577.054C766.548 578.688 769.485 580.707 772.151 583.112C774.816 585.517 776.943 588.171 778.532 591.075C780.09 594.038 780.946 597.205 781.1 600.575C781.254 603.945 780.424 607.413 778.608 610.977C776.763 614.601 774.521 617.312 771.884 619.112C769.217 620.97 766.317 622.112 763.183 622.536C760.049 622.96 756.756 622.741 753.304 621.881C749.852 621.021 746.373 619.698 742.868 617.913C742.452 617.701 741.992 617.429 741.488 617.098C740.953 616.825 740.567 616.629 740.329 616.508ZM769.872 606.977C770.689 605.373 771.059 603.766 770.981 602.155C770.904 600.544 770.527 599.006 769.853 597.54C769.178 596.074 768.249 594.666 767.066 593.316C765.853 592.025 764.565 590.882 763.201 589.888L752.808 610.294C753.996 610.899 755.409 611.357 757.047 611.667C758.654 612.037 760.248 612.138 761.83 611.971C763.471 611.834 765.01 611.383 766.446 610.619C767.883 609.854 769.025 608.64 769.872 606.977Z" fill="#FACAD5" fill-opacity="0.5"/>
<path d="M733.137 662.088C734.171 661.182 735 660.337 735.624 659.553C736.303 658.807 736.797 658.095 737.105 657.416C737.916 655.544 738.134 653.708 737.76 651.908C737.402 650.2 736.701 648.578 735.656 647.043C734.574 645.562 733.267 644.17 731.738 642.867C730.208 641.563 728.703 640.398 727.224 639.373L705.855 624.561C705.088 624.03 704.932 623.435 705.388 622.777L710.117 615.956C710.534 615.353 711.154 615.337 711.976 615.906L745.097 638.864C746.851 640.08 748.623 641.268 750.414 642.428C752.206 643.589 753.759 644.625 755.074 645.536C755.567 645.878 755.811 646.169 755.807 646.409C755.857 646.688 755.75 647.018 755.484 647.402L750.755 654.224C750.49 654.607 750.283 654.788 750.135 654.767C749.988 654.746 749.777 654.64 749.503 654.451L745.887 651.944C746.278 652.783 746.594 653.732 746.834 654.791C747.036 655.904 747.136 656.987 747.136 658.042C747.152 659.188 747.031 660.24 746.773 661.197C746.57 662.192 746.241 663.018 745.785 663.676C745.064 664.717 744.391 665.629 743.766 666.413C743.159 667.29 742.258 668.004 741.064 668.556C740.765 668.754 740.459 668.785 740.147 668.65C739.89 668.553 739.652 668.429 739.433 668.277L733.269 664.004C733.05 663.852 732.86 663.599 732.7 663.245C732.54 662.891 732.686 662.505 733.137 662.088Z" fill="#FACAD5" fill-opacity="0.5"/>
<path d="M675.76 660.985C675.553 660.618 675.468 660.363 675.508 660.22C675.498 660.031 675.627 659.788 675.895 659.491L681.651 653.101C681.918 652.804 682.169 652.626 682.402 652.566C682.54 652.512 682.803 652.569 683.189 652.738L734.824 674.753C735.161 674.877 735.359 675.056 735.419 675.289C735.478 675.522 735.262 675.91 734.772 676.455L728.949 682.92C728.726 683.167 728.498 683.321 728.265 683.38C728.082 683.484 727.821 683.474 727.484 683.35L691.107 667.406L710.82 701.851C710.978 702.173 711.015 702.431 710.931 702.624C710.851 702.912 710.7 703.179 710.477 703.427L704.587 709.965C704.097 710.51 703.732 710.765 703.494 710.731C703.257 710.696 703.059 710.517 702.9 710.195L675.76 660.985Z" fill="#FACAD5" fill-opacity="0.5"/>
<path d="M696.313 731.141C697.759 729.857 699.4 729.246 701.238 729.307C703.071 729.463 704.607 730.238 705.847 731.634C707.131 733.079 707.742 734.721 707.681 736.559C707.569 738.441 706.791 740.024 705.346 741.308C703.9 742.592 702.236 743.179 700.354 743.067C698.472 742.956 696.889 742.178 695.605 740.732C694.365 739.337 693.801 737.698 693.912 735.816C694.067 733.983 694.868 732.425 696.313 731.141ZM655.695 678.943C655.944 678.721 656.257 678.622 656.634 678.644C656.916 678.661 657.168 678.794 657.389 679.043L692.389 718.442C692.611 718.691 692.713 718.957 692.696 719.239C692.674 719.616 692.538 719.915 692.289 720.136L686.009 725.715C685.76 725.936 685.472 726.014 685.145 725.947C684.813 725.975 684.536 725.864 684.315 725.615L649.315 686.216C649.094 685.966 649.016 685.678 649.083 685.352C649.055 685.02 649.166 684.743 649.415 684.521L655.695 678.943Z" fill="#FACAD5" fill-opacity="0.5"/>
<path d="M616.142 740.596C615.838 740.158 615.746 739.735 615.868 739.325C615.935 738.954 616.105 738.674 616.379 738.483L643.399 719.713C640.576 716.234 637.335 714.022 633.673 713.075C630.05 712.183 626.486 712.954 622.982 715.388C621.175 716.643 619.274 718.289 617.279 720.324C615.322 722.414 613.785 724.7 612.667 727.181C612.436 727.666 612.171 727.81 611.871 727.612C611.571 727.415 611.269 727.097 610.965 726.659L607.028 720.992C606.686 720.499 606.502 720.059 606.476 719.671C606.45 719.283 606.588 718.781 606.891 718.165C607.925 716.148 609.431 714.168 611.41 712.226C613.333 710.321 615.445 708.57 617.745 706.972C624.534 702.256 631.088 700.706 637.406 702.323C643.708 704.034 649.598 708.831 655.075 716.715C657.129 719.671 658.762 722.839 659.973 726.219C661.185 729.599 661.803 732.943 661.83 736.253C661.802 739.601 661.058 742.796 659.6 745.838C658.142 748.881 655.77 751.543 652.485 753.825C649.146 756.145 645.888 757.475 642.714 757.813C639.485 758.189 636.39 757.823 633.428 756.715C630.466 755.606 627.668 753.857 625.033 751.466C622.398 749.076 619.959 746.265 617.714 743.035C617.448 742.652 617.171 742.195 616.884 741.664C616.541 741.171 616.294 740.815 616.142 740.596ZM646.68 746.169C648.158 745.142 649.244 743.901 649.937 742.445C650.63 740.989 651.026 739.456 651.125 737.845C651.224 736.234 651.071 734.554 650.668 732.805C650.21 731.094 649.615 729.478 648.883 727.957L630.076 741.023C630.836 742.118 631.865 743.189 633.161 744.237C634.402 745.323 635.759 746.166 637.232 746.766C638.742 747.422 640.311 747.752 641.939 747.758C643.566 747.764 645.147 747.234 646.68 746.169Z" fill="#FACAD5" fill-opacity="0.5"/>
<path d="M559.137 741.147C559.678 740.585 560.383 739.979 561.253 739.329C562.122 738.68 563.096 738.016 564.175 737.338C565.193 736.69 566.331 736.058 567.588 735.441C568.755 734.793 569.922 734.221 571.089 733.723C574.977 732.112 578.739 731.305 582.377 731.302C585.925 731.269 589.245 731.905 592.336 733.21C595.427 734.515 598.23 736.444 600.745 738.997C603.23 741.639 605.354 744.756 607.116 748.346C608.966 752.117 610.071 755.882 610.431 759.641C610.79 763.401 610.451 766.946 609.412 770.278C608.343 773.698 606.591 776.786 604.156 779.541C601.72 782.296 598.617 784.598 594.847 786.448C592.991 787.359 591.077 788.15 589.105 788.821C587.101 789.581 585.055 790.102 582.966 790.385C582.697 790.443 582.459 790.411 582.251 790.29C582.043 790.169 581.837 789.825 581.633 789.257L579.401 782.666C579.255 782.218 579.258 781.845 579.409 781.548C579.501 781.281 579.845 781.074 580.442 780.93C581.994 780.762 583.712 780.328 585.595 779.626C587.419 778.954 589.109 778.236 590.665 777.473C595.513 775.094 598.43 771.731 599.416 767.386C600.402 763.04 599.647 758.324 597.151 753.237C594.743 748.329 591.637 744.952 587.835 743.105C583.972 741.287 579.664 741.21 574.911 742.874C570.547 744.422 566.998 746.498 564.266 749.101C563.785 749.634 563.441 749.84 563.233 749.72C562.965 749.628 562.713 749.418 562.477 749.088L558.988 743.114C558.694 742.664 558.562 742.321 558.594 742.082C558.536 741.813 558.717 741.502 559.137 741.147Z" fill="#FACAD5" fill-opacity="0.5"/>
</g>
<defs>
<filter id="filter0_f_556_3006" x="14.4905" y="14.3701" width="835.415" height="793.739" filterUnits="userSpaceOnUse" color-interpolation-filters="sRGB">
<feFlood flood-opacity="0" result="BackgroundImageFix"/>
<feBlend mode="normal" in="SourceGraphic" in2="BackgroundImageFix" result="shape"/>
<feGaussianBlur stdDeviation="2.5" result="effect1_foregroundBlur_556_3006"/>
</filter>
</defs>
</svg>
