<svg width="678" height="590" viewBox="0 0 678 590" fill="none" xmlns="http://www.w3.org/2000/svg">
<rect x="4" y="23" width="674" height="567" rx="20" fill="white"/>
<path d="M0 19C0 8.50658 8.50659 0 19 0H217.555C222.931 0 228.056 2.2779 231.659 6.26897L263.341 41.3681C266.944 45.3591 272.069 47.637 277.445 47.637H659C669.493 47.637 678 56.1436 678 66.637V571C678 581.493 669.493 590 659 590H19C8.50659 590 0 581.493 0 571V19Z" fill="#D9D9D9"/>
<path d="M51.2966 26.64H60.9566V29.02H51.2966V26.64ZM51.2966 33.92H60.9566V36.335H51.2966V33.92ZM45.5216 23.945C50.1766 23.945 53.6766 27.095 53.6766 31.47C53.6766 35.88 50.1766 38.995 45.5216 38.995C40.8316 38.995 37.3666 35.88 37.3666 31.47C37.3666 27.095 40.8316 23.945 45.5216 23.945ZM45.5216 26.43C42.4416 26.43 40.1666 28.495 40.1666 31.47C40.1666 34.445 42.4416 36.51 45.5216 36.51C48.6016 36.51 50.9116 34.445 50.9116 31.47C50.9116 28.495 48.6016 26.43 45.5216 26.43ZM60.0116 22.09H62.9166V40.815H60.0116V22.09ZM52.5216 41.55C59.0316 41.55 63.0566 43.79 63.0566 47.605C63.0566 51.455 59.0316 53.66 52.5216 53.66C45.9766 53.66 41.9516 51.455 41.9516 47.605C41.9516 43.79 45.9766 41.55 52.5216 41.55ZM52.5216 43.86C47.7266 43.86 44.8216 45.26 44.8216 47.605C44.8216 49.985 47.7266 51.385 52.5216 51.385C57.2816 51.385 60.1866 49.985 60.1866 47.605C60.1866 45.26 57.2816 43.86 52.5216 43.86ZM76.7739 23.735H79.1889V26.955C79.1889 33.045 75.7589 38.085 70.4739 40.15L68.9339 37.805C73.6939 36.055 76.7739 31.785 76.7739 26.955V23.735ZM77.2989 23.735H79.6789V27.165C79.6789 31.435 82.8289 35.39 87.3789 36.965L85.8389 39.24C80.7639 37.35 77.2989 32.66 77.2989 27.165V23.735ZM90.7389 22.09H93.6439V41.27H90.7389V22.09ZM92.8389 30.245H98.3339V32.695H92.8389V30.245ZM83.5639 42.145C90.0389 42.145 93.9589 44.28 93.9589 47.92C93.9589 51.56 90.0389 53.66 83.5639 53.66C77.0889 53.66 73.1689 51.56 73.1689 47.92C73.1689 44.28 77.0889 42.145 83.5639 42.145ZM83.5639 44.455C78.8739 44.455 76.0039 45.715 76.0039 47.92C76.0039 50.125 78.8739 51.385 83.5639 51.385C88.2539 51.385 91.1239 50.125 91.1239 47.92C91.1239 45.715 88.2539 44.455 83.5639 44.455ZM124.887 29.615H133.392V32.03H124.887V29.615ZM117.607 23.525C122.332 23.525 125.762 26.535 125.762 30.875C125.762 35.215 122.332 38.19 117.607 38.19C112.882 38.19 109.452 35.215 109.452 30.875C109.452 26.535 112.882 23.525 117.607 23.525ZM117.607 25.975C114.492 25.975 112.252 27.97 112.252 30.875C112.252 33.745 114.492 35.775 117.607 35.775C120.722 35.775 122.962 33.745 122.962 30.875C122.962 27.97 120.722 25.975 117.607 25.975ZM132.097 22.09H135.002V39.065H132.097V22.09ZM114.737 40.64H117.642V44.63H132.132V40.64H135.002V53.31H114.737V40.64ZM117.642 46.94V50.965H132.132V46.94H117.642ZM141.194 47.43H169.859V49.845H141.194V47.43ZM154.004 40.64H156.909V48.445H154.004V40.64ZM144.659 24.435H166.324V34.025H147.634V40.36H144.764V31.68H163.454V26.78H144.659V24.435ZM144.764 39.135H167.059V41.515H144.764V39.135ZM176.996 37.245H198.731V39.625H176.996V37.245ZM173.391 47.045H202.056V49.46H173.391V47.045ZM176.996 24.995H198.416V27.41H179.901V38.295H176.996V24.995Z" fill="black"/>
</svg>
