<svg width="678" height="590" viewBox="0 0 678 590" fill="none" xmlns="http://www.w3.org/2000/svg">
<rect x="4" y="23" width="674" height="567" rx="20" fill="white"/>
<path d="M0 19C0 8.50658 8.50659 0 19 0H241.055C246.431 0 251.556 2.2779 255.159 6.26897L286.841 41.3681C290.444 45.3591 295.569 47.637 300.945 47.637H659C669.493 47.637 678 56.1436 678 66.637V571C678 581.493 669.493 590 659 590H19C8.50659 590 0 581.493 0 571V19Z" fill="#FACAD5"/>
<path d="M54.403 22.09H57.308V40.57H54.403V22.09ZM49.538 28.845H55.978V31.225H49.538V28.845ZM36.168 42.075H57.308V53.31H36.168V42.075ZM54.438 44.385H39.003V50.93H54.438V44.385ZM35.433 23.875H37.568V26.92C37.568 31.015 36.168 36.37 32.143 38.82L30.498 36.72C34.138 34.515 35.433 30.07 35.433 26.92V23.875ZM36.098 23.875H38.198V26.92C38.198 29.825 39.038 34.515 42.573 36.93L41.173 39.135C37.008 36.475 36.098 30.7 36.098 26.92V23.875ZM44.113 23.875H46.213V26.92C46.213 30.91 45.268 36.545 41.173 39.135L39.738 36.93C43.273 34.585 44.113 30 44.113 26.92V23.875ZM44.743 23.875H46.878V26.92C46.878 30.455 48.138 34.655 51.778 36.72L50.168 38.82C46.108 36.475 44.743 31.4 44.743 26.92V23.875ZM64.5153 25.485H67.3853V44.035H64.5153V25.485ZM64.5153 43.195H66.5453C70.2203 43.195 73.6503 43.02 77.6403 42.215L78.0253 44.7C73.8953 45.54 70.3603 45.715 66.5453 45.715H64.5153V43.195ZM87.0903 22.09H89.8903V53.73H87.0903V22.09ZM73.3003 32.695H81.2103V35.11H73.3003V32.695ZM80.4053 22.825H83.1353V52.12H80.4053V22.825ZM104.063 23.245C108.788 23.245 112.253 26.115 112.253 30.28C112.253 34.41 108.788 37.28 104.063 37.28C99.3725 37.28 95.9075 34.41 95.9075 30.28C95.9075 26.115 99.3725 23.245 104.063 23.245ZM104.063 25.625C101.018 25.625 98.7075 27.55 98.7075 30.28C98.7075 33.01 101.018 34.9 104.063 34.9C107.143 34.9 109.418 33.01 109.418 30.28C109.418 27.55 107.143 25.625 104.063 25.625ZM118.203 22.09H121.143V38.295H118.203V22.09ZM100.668 39.835H121.143V47.535H103.573V52.295H100.738V45.365H118.273V42.18H100.668V39.835ZM100.738 51H122.193V53.31H100.738V51ZM150.985 29.615H159.49V32.03H150.985V29.615ZM143.705 23.525C148.43 23.525 151.86 26.535 151.86 30.875C151.86 35.215 148.43 38.19 143.705 38.19C138.98 38.19 135.55 35.215 135.55 30.875C135.55 26.535 138.98 23.525 143.705 23.525ZM143.705 25.975C140.59 25.975 138.35 27.97 138.35 30.875C138.35 33.745 140.59 35.775 143.705 35.775C146.82 35.775 149.06 33.745 149.06 30.875C149.06 27.97 146.82 25.975 143.705 25.975ZM158.195 22.09H161.1V39.065H158.195V22.09ZM140.835 40.64H143.74V44.63H158.23V40.64H161.1V53.31H140.835V40.64ZM143.74 46.94V50.965H158.23V46.94H143.74ZM167.292 47.43H195.957V49.845H167.292V47.43ZM180.102 40.64H183.007V48.445H180.102V40.64ZM170.757 24.435H192.422V34.025H173.732V40.36H170.862V31.68H189.552V26.78H170.757V24.435ZM170.862 39.135H193.157V41.515H170.862V39.135ZM203.095 37.245H224.83V39.625H203.095V37.245ZM199.49 47.045H228.155V49.46H199.49V47.045ZM203.095 24.995H224.515V27.41H206V38.295H203.095V24.995Z" fill="black"/>
</svg>
