<svg width="34" height="34" viewBox="0 0 34 34" fill="none" xmlns="http://www.w3.org/2000/svg">
<path d="M32 8.375V16.025C32 17.93 31.37 19.535 30.245 20.645C29.135 21.77 27.53 22.4 25.625 22.4V25.115C25.625 26.135 24.485 26.75 23.645 26.18L22.19 25.22C22.325 24.755 22.385 24.245 22.385 23.705V17.6C22.385 14.54 20.345 12.5 17.285 12.5H7.09999C6.88999 12.5 6.695 12.515 6.5 12.53V8.375C6.5 4.55 9.05 2 12.875 2H25.625C29.45 2 32 4.55 32 8.375Z" stroke="#C7C7C7" stroke-width="2.5" stroke-miterlimit="10" stroke-linecap="round" stroke-linejoin="round"/>
<path d="M22.385 17.6V23.705C22.385 24.245 22.325 24.755 22.19 25.22C21.635 27.425 19.805 28.805 17.285 28.805H13.205L8.675 31.82C8 32.285 7.09999 31.79 7.09999 30.98V28.805C5.56999 28.805 4.295 28.295 3.41 27.41C2.51 26.51 2 25.235 2 23.705V17.6C2 14.75 3.77 12.785 6.5 12.53C6.695 12.515 6.88999 12.5 7.09999 12.5H17.285C20.345 12.5 22.385 14.54 22.385 17.6Z" stroke="#C7C7C7" stroke-width="2.5" stroke-miterlimit="10" stroke-linecap="round" stroke-linejoin="round"/>
</svg>
