<svg width="34" height="34" viewBox="0 0 34 34" fill="none" xmlns="http://www.w3.org/2000/svg">
<path d="M17.1796 18.1691C17.0746 18.1541 16.9396 18.1541 16.8196 18.1691C14.1796 18.0791 12.0796 15.9191 12.0796 13.2641C12.0796 10.5491 14.2696 8.34412 16.9996 8.34412C19.7146 8.34412 21.9196 10.5491 21.9196 13.2641C21.9046 15.9191 19.8196 18.0791 17.1796 18.1691Z" stroke="#C7C7C7" stroke-width="2.5" stroke-linecap="round" stroke-linejoin="round"/>
<path d="M27.1106 28.0707C24.4406 30.5157 20.9006 32.0007 17.0006 32.0007C13.1006 32.0007 9.56063 30.5157 6.89062 28.0707C7.04063 26.6607 7.94063 25.2807 9.54563 24.2007C13.6556 21.4707 20.3756 21.4707 24.4556 24.2007C26.0606 25.2807 26.9606 26.6607 27.1106 28.0707Z" stroke="#C7C7C7" stroke-width="2.5" stroke-linecap="round" stroke-linejoin="round"/>
<path d="M17 32C25.2842 32 32 25.2842 32 17C32 8.71572 25.2842 2 17 2C8.71572 2 2 8.71572 2 17C2 25.2842 8.71572 32 17 32Z" stroke="#C7C7C7" stroke-width="2.5" stroke-linecap="round" stroke-linejoin="round"/>
</svg>
