<svg width="30" height="33" viewBox="0 0 30 33" fill="none" xmlns="http://www.w3.org/2000/svg">
<g id="&#240;&#159;&#166;&#134; icon &#34;edit 2&#34;">
<g id="Group">
<path id="Vector" d="M5.06152 27.8367C4.12306 27.8367 3.24614 27.5134 2.61537 26.9134C1.81537 26.1596 1.43076 25.0211 1.56922 23.7904L2.13845 18.8057C2.24614 17.8673 2.81537 16.6211 3.47691 15.9442L16.1077 2.57505C19.2615 -0.763417 22.5538 -0.855724 25.8923 2.29812C29.2308 5.45197 29.3231 8.74428 26.1692 12.0827L13.5385 25.4519C12.8923 26.1442 11.6923 26.7904 10.7538 26.9444L5.79999 27.7904C5.53845 27.8057 5.30768 27.8367 5.06152 27.8367ZM21.0462 2.28274C19.8615 2.28274 18.8308 3.0212 17.7846 4.12889L5.15383 17.5136C4.84614 17.8367 4.49229 18.6059 4.43076 19.052L3.86153 24.0365C3.79999 24.5442 3.92306 24.9596 4.19999 25.2211C4.47691 25.4827 4.89229 25.575 5.39999 25.498L10.3538 24.6521C10.8 24.5751 11.5384 24.175 11.8461 23.8519L24.4769 10.4827C26.3846 8.45197 27.0769 6.57505 24.2923 3.95966C23.0615 2.77505 22 2.28274 21.0462 2.28274Z" fill="#878787"/>
<path id="Vector_2" d="M23.2159 14.6516C23.1852 14.6516 23.139 14.6516 23.1082 14.6516C18.3082 14.1747 14.4467 10.5286 13.7082 5.75935C13.6159 5.12858 14.0467 4.54397 14.6775 4.43628C15.3082 4.34397 15.8929 4.77474 16.0006 5.40551C16.5852 9.12858 19.6006 11.9901 23.3544 12.3594C23.9852 12.4209 24.4467 12.9901 24.3852 13.6208C24.3083 14.2054 23.8006 14.6516 23.2159 14.6516Z" fill="#878787"/>
<path id="Vector_3" d="M28.8462 32.8057H1.15385C0.523077 32.8057 0 32.2827 0 31.6519C0 31.0211 0.523077 30.498 1.15385 30.498H28.8462C29.4769 30.498 30 31.0211 30 31.6519C30 32.2827 29.4769 32.8057 28.8462 32.8057Z" fill="#878787"/>
</g>
</g>
</svg>
