<svg width="46" height="46" viewBox="0 0 46 46" fill="none" xmlns="http://www.w3.org/2000/svg">
<g id="codicon:kebab-vertical">
<path id="Vector" fill-rule="evenodd" clip-rule="evenodd" d="M21.4015 39.767C21.7154 39.9791 22.0681 40.127 22.4393 40.2024C22.8106 40.2777 23.1931 40.2789 23.5648 40.206C23.9365 40.133 24.2902 39.9873 24.6054 39.7773C24.9206 39.5672 25.1913 39.2969 25.4017 38.9819C25.6121 38.6669 25.7582 38.3134 25.8316 37.9418C25.905 37.5701 25.9042 37.1877 25.8293 36.8163C25.7544 36.445 25.6069 36.0921 25.3952 35.778C25.1834 35.4638 24.9117 35.1947 24.5956 34.9859C23.962 34.5963 23.2021 34.4675 22.4755 34.6265C21.7489 34.7854 21.1122 35.2198 20.6991 35.8383C20.286 36.4568 20.1287 37.2113 20.2602 37.9434C20.3917 38.6755 20.8018 39.3281 21.4044 39.7641L21.4015 39.767ZM23 25.875C22.2375 25.875 21.5062 25.5721 20.9671 25.0329C20.4279 24.4938 20.125 23.7625 20.125 23C20.125 22.2375 20.4279 21.5062 20.9671 20.9671C21.5062 20.4279 22.2375 20.125 23 20.125C23.7625 20.125 24.4938 20.4279 25.0329 20.9671C25.5721 21.5062 25.875 22.2375 25.875 23C25.875 23.7625 25.5721 24.4938 25.0329 25.0329C24.4938 25.5721 23.7625 25.875 23 25.875ZM23 11.5C22.2375 11.5 21.5062 11.1971 20.9671 10.6579C20.4279 10.1188 20.125 9.3875 20.125 8.625C20.125 7.8625 20.4279 7.13123 20.9671 6.59207C21.5062 6.0529 22.2375 5.75 23 5.75C23.7625 5.75 24.4938 6.0529 25.0329 6.59207C25.5721 7.13123 25.875 7.8625 25.875 8.625C25.875 9.3875 25.5721 10.1188 25.0329 10.6579C24.4938 11.1971 23.7625 11.5 23 11.5Z" fill="#878787"/>
</g>
</svg>
