<svg width="17" height="17" viewBox="0 0 17 17" fill="none" xmlns="http://www.w3.org/2000/svg">
<path d="M5.875 13.75H5.5C2.5 13.75 1 13 1 9.25V5.5C1 2.5 2.5 1 5.5 1H11.5C14.5 1 16 2.5 16 5.5V9.25C16 12.25 14.5 13.75 11.5 13.75H11.125C10.8925 13.75 10.6675 13.8625 10.525 14.05L9.4 15.55C8.905 16.21 8.095 16.21 7.6 15.55L6.475 14.05C6.355 13.885 6.0775 13.75 5.875 13.75Z" stroke="#8F8F8F" stroke-width="1.5" stroke-miterlimit="10" stroke-linecap="round" stroke-linejoin="round"/>
<path d="M4.75 5.5H12.25" stroke="#8F8F8F" stroke-width="1.5" stroke-linecap="round" stroke-linejoin="round"/>
<path d="M4.75 9.25H9.25" stroke="#8F8F8F" stroke-width="1.5" stroke-linecap="round" stroke-linejoin="round"/>
</svg>
