<svg width="53" height="53" viewBox="0 0 53 53" fill="none" xmlns="http://www.w3.org/2000/svg">
<path opacity="0.4" d="M52.149 26.3245C52.149 40.5871 40.5868 52.149 26.3245 52.149C12.062 52.149 0.5 40.5871 0.5 26.3245C0.5 12.062 12.062 0.5 26.3245 0.5C40.5868 0.5 52.149 12.062 52.149 26.3245Z" fill="#F5F5F7" stroke="black"/>
<path d="M26.3243 12.9775C20.8752 12.9775 16.4526 17.4001 16.4526 22.8491C16.4526 28.193 20.6382 32.5365 26.1927 32.6945H26.4296H26.6139H26.6665C31.9841 32.5102 36.1697 28.193 36.196 22.8491C36.196 17.4001 31.7735 12.9775 26.3243 12.9775Z" fill="#6E6E6E"/>
<path d="M44.1745 45.674C39.4888 49.9912 33.2235 52.6499 26.3265 52.6499C19.4295 52.6499 13.1643 49.9912 8.47852 45.674C9.1103 43.2784 10.8214 41.0935 13.3222 39.4087C20.5088 34.6177 32.1969 34.6177 39.3308 39.4087C41.858 41.0935 43.5427 43.2784 44.1745 45.674Z" fill="#6E6E6E"/>
</svg>
