<svg fill="none" height="32" viewBox="0 0 32 32" width="32" xmlns="http://www.w3.org/2000/svg"><g stroke="#71717a" stroke-linecap="round" stroke-linejoin="round" stroke-width="1.5"><path d="m15.9998 7.00133c-5.3747-.09066-10.93336 3.66537-14.42803 7.51197-.36682.4073-.56982.9359-.56982 1.484s.203 1.0768.56982 1.484c3.41867 3.7654 8.96133 7.608 14.42803 7.516 5.4666.092 11.0106-3.7506 14.432-7.516.3668-.4072.5698-.9359.5698-1.484s-.203-1.0767-.5698-1.484c-3.4987-3.8466-9.0574-7.60263-14.432-7.51197z"/><path d="m21 16c-.0003.9888-.2937 1.9554-.8433 2.7775-.5496.822-1.3306 1.4627-2.2442 1.8409-.9137.3783-1.9189.4771-2.8888.284-.9698-.1931-1.8606-.6694-2.5597-1.3687s-1.1752-1.5902-1.368-2.5601-.0937-1.9751.2847-2.8887c.3785-.9135 1.0194-1.6943 1.8416-2.2437.8222-.5493 1.7889-.8425 2.7777-.8425.6568-.0002 1.3071.129 1.9139.3803s1.1582.6197 1.6225 1.0842.8326 1.0159 1.0837 1.6228c.2512.6068.3803 1.2572.3799 1.914z"/></g></svg>