<svg width="43" height="43" viewBox="0 0 43 43" fill="none" xmlns="http://www.w3.org/2000/svg">
<g id="carbon:user-follow">
<path id="Vector" d="M43 18.8125H37.625V13.4375H34.9375V18.8125H29.5625V21.5H34.9375V26.875H37.625V21.5H43V18.8125ZM16.125 5.375C17.4538 5.375 18.7528 5.76905 19.8577 6.50731C20.9626 7.24558 21.8238 8.2949 22.3323 9.5226C22.8408 10.7503 22.9739 12.1012 22.7147 13.4045C22.4554 14.7078 21.8155 15.905 20.8759 16.8446C19.9362 17.7843 18.7391 18.4242 17.4358 18.6834C16.1325 18.9426 14.7815 18.8096 13.5538 18.3011C12.3262 17.7925 11.2768 16.9314 10.5386 15.8265C9.8003 14.7216 9.40625 13.4226 9.40625 12.0938C9.40625 10.3118 10.1141 8.60289 11.3741 7.34288C12.6341 6.08287 14.3431 5.375 16.125 5.375ZM16.125 2.6875C14.2646 2.6875 12.446 3.23917 10.8992 4.27274C9.35232 5.30631 8.14669 6.77537 7.43476 8.49413C6.72282 10.2129 6.53655 12.1042 6.89949 13.9288C7.26243 15.7535 8.15829 17.4295 9.47378 18.745C10.7893 20.0605 12.4653 20.9563 14.2899 21.3193C16.1146 21.6822 18.0058 21.4959 19.7246 20.784C21.4434 20.0721 22.9124 18.8664 23.946 17.3196C24.9796 15.7727 25.5312 13.9541 25.5312 12.0938C25.5312 9.59906 24.5402 7.20654 22.7762 5.44253C21.0122 3.67851 18.6197 2.6875 16.125 2.6875ZM29.5625 40.3125H26.875V33.5938C26.875 31.8118 26.1671 30.1029 24.9071 28.8429C23.6471 27.5829 21.9382 26.875 20.1562 26.875H12.0938C10.3118 26.875 8.60289 27.5829 7.34288 28.8429C6.08287 30.1029 5.375 31.8118 5.375 33.5938V40.3125H2.6875V33.5938C2.6875 31.0991 3.67851 28.7065 5.44253 26.9425C7.20654 25.1785 9.59906 24.1875 12.0938 24.1875H20.1562C22.6509 24.1875 25.0435 25.1785 26.8075 26.9425C28.5715 28.7065 29.5625 31.0991 29.5625 33.5938V40.3125Z" fill="#878787"/>
</g>
</svg>
