<svg width="20" height="21" viewBox="0 0 20 21" fill="none" xmlns="http://www.w3.org/2000/svg">
<g clip-path="url(#clip0_542_1137)">
<path d="M14.95 15.4497C13.5255 16.5355 11.791 17.1371 10 17.1664C4.16671 17.1664 0.833374 10.4997 0.833374 10.4997C1.86995 8.56794 3.30765 6.8802 5.05004 5.5497M8.25004 4.03303C8.82365 3.89876 9.41093 3.83164 10 3.83303C15.8334 3.83303 19.1667 10.4997 19.1667 10.4997C18.6609 11.446 18.0576 12.337 17.3667 13.158M11.7667 12.2664C11.5378 12.512 11.2618 12.709 10.9552 12.8456C10.6485 12.9823 10.3175 13.0557 9.98178 13.0617C9.64611 13.0676 9.31268 13.0058 9.00138 12.8801C8.69009 12.7544 8.40731 12.5672 8.16991 12.3298C7.93252 12.0924 7.74537 11.8096 7.61963 11.4984C7.4939 11.1871 7.43215 10.8536 7.43807 10.518C7.44399 10.1823 7.51746 9.85123 7.6541 9.54457C7.79074 9.2379 7.98775 8.9619 8.23337 8.73303" stroke="#94A3B8" stroke-width="1.5" stroke-linecap="round" stroke-linejoin="round"/>
<path d="M0.833374 1.33301L19.1667 19.6663" stroke="#94A3B8" stroke-width="1.5" stroke-linecap="round" stroke-linejoin="round"/>
</g>
<defs>
<clipPath id="clip0_542_1137">
<rect width="20" height="20" fill="white" transform="translate(0 0.5)"/>
</clipPath>
</defs>
</svg>
