<svg width="35" height="35" viewBox="0 0 35 35" fill="none" xmlns="http://www.w3.org/2000/svg">
<circle cx="17.5" cy="17.5" r="17.5" fill="#FACAD5"/>
<g clip-path="url(#clip0_627_9109)">
<path d="M24.6668 14.3333H20.6668M14.0002 14.3333H11.3335M24.6668 21.6667H22.0002M15.3335 21.6667H11.3335M16.6668 16.6667C16.9732 16.6667 17.2767 16.6063 17.5598 16.4891C17.8428 16.3718 18.1001 16.1999 18.3167 15.9832C18.5334 15.7666 18.7053 15.5094 18.8225 15.2263C18.9398 14.9432 19.0002 14.6398 19.0002 14.3333C19.0002 14.0269 18.9398 13.7235 18.8225 13.4404C18.7053 13.1573 18.5334 12.9001 18.3167 12.6834C18.1001 12.4667 17.8428 12.2949 17.5598 12.1776C17.2767 12.0604 16.9732 12 16.6668 12C16.048 12 15.4545 12.2458 15.0169 12.6834C14.5793 13.121 14.3335 13.7145 14.3335 14.3333C14.3335 14.9522 14.5793 15.5457 15.0169 15.9832C15.4545 16.4208 16.048 16.6667 16.6668 16.6667V16.6667ZM19.3335 24C19.9523 24 20.5458 23.7542 20.9834 23.3166C21.421 22.879 21.6668 22.2855 21.6668 21.6667C21.6668 21.0478 21.421 20.4543 20.9834 20.0168C20.5458 19.5792 19.9523 19.3333 19.3335 19.3333C18.7147 19.3333 18.1212 19.5792 17.6836 20.0168C17.246 20.4543 17.0002 21.0478 17.0002 21.6667C17.0002 22.2855 17.246 22.879 17.6836 23.3166C18.1212 23.7542 18.7147 24 19.3335 24V24Z" stroke="white" stroke-width="2.5" stroke-miterlimit="10" stroke-linecap="round" stroke-linejoin="round"/>
</g>
<defs>
<clipPath id="clip0_627_9109">
<rect width="16" height="16" fill="white" transform="translate(10 10)"/>
</clipPath>
</defs>
</svg>
