<svg width="124" height="124" viewBox="0 0 124 124" fill="none" xmlns="http://www.w3.org/2000/svg">
<path d="M58.7254 117.451C26.3548 117.451 0 91.096 0 58.7254C0 26.3548 26.3548 0 58.7254 0C91.096 0 117.451 26.3548 117.451 58.7254C117.451 91.096 91.096 117.451 58.7254 117.451ZM58.7254 8.59397C31.0529 8.59397 8.59397 31.1102 8.59397 58.7254C8.59397 86.3407 31.0529 108.857 58.7254 108.857C86.398 108.857 108.857 86.3407 108.857 58.7254C108.857 31.1102 86.398 8.59397 58.7254 8.59397Z" fill="#6E6E6E"/>
<path d="M118.886 123.18C117.797 123.18 116.709 122.779 115.849 121.919L104.391 110.461C102.729 108.799 102.729 106.049 104.391 104.388C106.052 102.726 108.802 102.726 110.464 104.388L121.922 115.846C123.584 117.508 123.584 120.258 121.922 121.919C121.063 122.779 119.974 123.18 118.886 123.18Z" fill="#6E6E6E"/>
</svg>
