<svg width="17" height="15" viewBox="0 0 17 15" fill="none" xmlns="http://www.w3.org/2000/svg">
<path d="M11.2438 7.3465C11.2438 8.86413 10.0174 10.0905 8.49982 10.0905C6.98219 10.0905 5.75586 8.86413 5.75586 7.3465C5.75586 5.82887 6.98219 4.60254 8.49982 4.60254C10.0174 4.60254 11.2438 5.82887 11.2438 7.3465Z" stroke="#8F8F8F" stroke-width="1.5" stroke-linecap="round" stroke-linejoin="round"/>
<path d="M8.50001 13.6852C11.2057 13.6852 13.7274 12.091 15.4826 9.33164C16.1725 8.25091 16.1725 6.43435 15.4826 5.3536C13.7274 2.59427 11.2057 1 8.50001 1C5.79432 1 3.27261 2.59427 1.51737 5.3536C0.827542 6.43435 0.827542 8.25091 1.51737 9.33164C3.27261 12.091 5.79432 13.6852 8.50001 13.6852Z" stroke="#8F8F8F" stroke-width="1.5" stroke-linecap="round" stroke-linejoin="round"/>
</svg>
