<svg width="175" height="65" viewBox="0 0 175 65" fill="none" xmlns="http://www.w3.org/2000/svg">
<path d="M4.2 64.2C2.93333 64.2 2.06667 63.6667 1.6 62.6C1.13333 61.5333 0.933333 60.4667 1 59.4C1.33333 57.4667 1.8 55.5 2.4 53.5C3.06667 51.4333 3.7 49.4 4.3 47.4C4.43333 46.9333 4.6 46.3333 4.8 45.6C5 44.8667 5.2 44.0667 5.4 43.2C4.93333 43.8667 4.4 44.6 3.8 45.4C3.26667 46.2 2.7 47.0333 2.1 47.9C1.83333 48.2333 1.53333 48.4 1.2 48.4C0.933334 48.4 0.733334 48.2667 0.6 48C0.466667 47.6667 0.533334 47.3333 0.8 47C2.33333 44.8667 3.53333 43 4.4 41.4C5.26667 39.7333 5.86667 38.4 6.2 37.4C6.33333 36.0667 6.16667 34.9667 5.7 34.1C5.3 33.1667 4.53333 32.7 3.4 32.7C3.2 32.7 3 32.7333 2.8 32.8C2.6 32.8 2.36667 32.8333 2.1 32.9C2.03333 32.9 1.96667 32.9333 1.9 33C1.9 33 1.86667 33 1.8 33C1.6 33 1.5 32.9 1.5 32.7C1.5 32.5 1.7 32.1333 2.1 31.6C2.36667 31.4 2.86667 31.2667 3.6 31.2C4.33333 31.0667 5.03333 30.9667 5.7 30.9C6.36667 30.8333 6.76667 30.8 6.9 30.8C7.83333 30.8 8.7 30.8667 9.5 31C10.3 31.1333 10.9667 31.5333 11.5 32.2C11.8333 32.5333 12.1 32.9667 12.3 33.5C12.5 34.0333 12.5333 34.5667 12.4 35.1C12.4 35.5 12.2 36.2 11.8 37.2C11.4667 38.1333 11.0667 39.1667 10.6 40.3C10.2 41.4333 9.8 42.4667 9.4 43.4C9.06667 44.2667 8.86667 44.8667 8.8 45.2C8.13333 47.0667 7.46667 49.1333 6.8 51.4C6.13333 53.6667 5.86667 55.4 6 56.6C9.13333 52.4667 12.3333 48.3333 15.6 44.2C18.8667 40.0667 22.4 36.2333 26.2 32.7C27.7333 31.1667 29.3 29.7667 30.9 28.5C32.5 27.1667 34.3 26.1 36.3 25.3C37.1667 24.9667 37.9667 24.8 38.7 24.8C39.7667 24.8 40.7 25 41.5 25.4C42.3 25.8 42.8333 26.2667 43.1 26.8C43.3667 27 43.5 27.3667 43.5 27.9C43.5 28.7 43.2333 29.1 42.7 29.1C42.5667 29.1 42.3 28.9667 41.9 28.7C41.5667 28.3667 41.0667 28.2 40.4 28.2C39.7333 28.2 39.1 28.2 38.5 28.2C37.1 28.2 35.3333 28.9 33.2 30.3C31.1333 31.7 28.8667 33.5333 26.4 35.8C24 38.0667 21.6 40.5333 19.2 43.2C16.8 45.8667 14.5667 48.5333 12.5 51.2C10.5 53.8667 8.83333 56.2667 7.5 58.4C6.23333 60.5333 5.53333 62.1667 5.4 63.3C5.4 63.6333 5.23333 63.8667 4.9 64C4.56667 64.1333 4.33333 64.2 4.2 64.2ZM40.2453 62.1C38.3786 62.1 36.7453 61.6667 35.3453 60.8C33.012 59.4 31.8453 56.8667 31.8453 53.2C31.8453 51.6667 32.112 49.9 32.6453 47.9C33.112 46.2333 33.9453 44.4333 35.1453 42.5C36.3453 40.5 37.7453 38.6 39.3453 36.8C41.012 35 42.812 33.5333 44.7453 32.4C46.6786 31.2667 48.612 30.7 50.5453 30.7C51.3453 30.7 52.0453 30.8 52.6453 31C53.4453 31.2667 54.112 31.7667 54.6453 32.5C55.2453 33.1667 55.5453 34.0333 55.5453 35.1C55.5453 36.2333 55.2453 36.8667 54.6453 37C54.112 37.1333 53.8453 37 53.8453 36.6C53.8453 36.4667 53.8453 36.3333 53.8453 36.2C53.912 36.0667 53.9453 35.9667 53.9453 35.9C53.9453 35.3667 53.7786 34.9 53.4453 34.5C53.1786 34.0333 52.6453 33.8 51.8453 33.8C50.7786 33.8 49.4453 34.3667 47.8453 35.5C46.312 36.6333 44.712 38.1667 43.0453 40.1C41.4453 41.9667 40.012 44.0333 38.7453 46.3C37.5453 48.5667 36.7453 50.8333 36.3453 53.1C36.2786 53.4333 36.212 53.7667 36.1453 54.1C36.1453 54.3667 36.1453 54.6667 36.1453 55C36.1453 56.5333 36.4786 57.8333 37.1453 58.9C37.8786 59.9 39.012 60.4 40.5453 60.4C42.412 60.4 44.212 59.7 45.9453 58.3C47.6786 56.8333 49.212 55.1 50.5453 53.1C51.9453 51.1 52.9786 49.3333 53.6453 47.8C54.1786 46.6 54.5453 45.5667 54.7453 44.7C54.9453 43.8333 55.0453 43.1 55.0453 42.5C55.0453 41.9667 54.9786 41.5 54.8453 41.1C54.7786 40.7 54.6786 40.3667 54.5453 40.1C54.412 39.7 54.3453 39.4 54.3453 39.2C54.3453 38.6667 54.5453 38.2333 54.9453 37.9C55.412 37.5667 55.8786 37.4 56.3453 37.4C56.7453 37.4 57.1786 37.5333 57.6453 37.8C58.1786 37.9333 58.912 38.0333 59.8453 38.1C60.7786 38.1667 61.7786 38.2 62.8453 38.2C63.9786 38.2 65.112 38.1667 66.2453 38.1C67.4453 38.0333 68.4786 37.9 69.3453 37.7C69.4786 37.6333 69.6786 37.6 69.9453 37.6C70.412 37.6 70.6453 37.7333 70.6453 38C70.6453 38.2667 70.412 38.5 69.9453 38.7C67.612 39.7667 65.512 40.3333 63.6453 40.4C61.8453 40.4667 60.2786 40.5 58.9453 40.5C59.0786 42.1667 58.712 43.9667 57.8453 45.9C56.9786 47.7667 56.0786 49.4333 55.1453 50.9C54.012 52.5667 52.712 54.2667 51.2453 56C49.7786 57.7333 48.1453 59.2 46.3453 60.4C44.5453 61.5333 42.512 62.1 40.2453 62.1ZM83.3039 26.2C82.4372 26.2 81.5372 26.1333 80.6039 26C79.6706 25.8 79.2039 25.1667 79.2039 24.1C79.2039 23.9 79.6372 23.4333 80.5039 22.7C81.4372 21.9667 82.3706 21.2333 83.3039 20.5C84.3039 19.7 84.9039 19.2333 85.1039 19.1C86.2372 18.1667 86.9372 17.7 87.2039 17.7C87.5372 17.7 87.5372 18.1333 87.2039 19C86.8706 19.8667 86.7039 20.6333 86.7039 21.3C86.7039 21.6333 86.5039 22.2 86.1039 23C85.7039 23.8 85.2372 24.5333 84.7039 25.2C84.1706 25.8667 83.7039 26.2 83.3039 26.2ZM72.4039 62C71.2039 62 70.1039 61.7333 69.1039 61.2C68.1706 60.6667 67.4706 59.6667 67.0039 58.2C66.9372 58 66.8706 57.8 66.8039 57.6C66.8039 57.4 66.8039 57.1667 66.8039 56.9C66.8039 55.5667 67.1039 53.9 67.7039 51.9C68.3039 49.9 69.0372 47.9667 69.9039 46.1C69.5039 46.6333 69.0372 47.3 68.5039 48.1C67.9706 48.8333 67.2039 49.8 66.2039 51C65.9372 51.2667 65.6372 51.4 65.3039 51.4C64.8372 51.4 64.6039 51.1333 64.6039 50.6C64.6039 50.2 64.7372 49.8667 65.0039 49.6C66.7372 47.4 68.2706 45.4333 69.6039 43.7C71.0039 41.9667 72.0372 40.5 72.7039 39.3C72.7039 39.2333 72.6706 39.2 72.6039 39.2C72.6039 39.1333 72.6039 39.0667 72.6039 39C72.6039 38.8 72.7039 38.5 72.9039 38.1C73.4372 36.5 73.9706 35.1667 74.5039 34.1C75.1039 32.9667 75.7372 32.3333 76.4039 32.2C76.5372 32.2 76.6706 32.2 76.8039 32.2C76.9372 32.1333 77.0706 32.1 77.2039 32.1C77.9372 32.1 78.6039 32.2667 79.2039 32.6C79.8039 32.9333 80.1039 33.4333 80.1039 34.1C80.1039 34.7 79.8706 35.4333 79.4039 36.3C79.0039 37.1667 78.4706 38.2333 77.8039 39.5C76.3372 42.5667 75.0039 45.3667 73.8039 47.9C72.6706 50.3667 72.0372 52.4 71.9039 54C71.8372 54.2667 71.8039 54.5333 71.8039 54.8C71.8039 55 71.8039 55.2333 71.8039 55.5C71.8039 58.1667 72.6706 59.5 74.4039 59.5C75.4706 59.5 76.8372 58.9333 78.5039 57.8C80.1706 56.6 81.8706 55.1667 83.6039 53.5C85.3372 51.7667 86.9039 50.1333 88.3039 48.6C89.7706 47 90.7706 45.8 91.3039 45C91.5039 44.8 91.7039 44.7 91.9039 44.7C92.1706 44.7 92.3706 44.8 92.5039 45C92.7039 45.2 92.7372 45.4667 92.6039 45.8C92.0039 46.9333 90.9706 48.3667 89.5039 50.1C88.1039 51.7667 86.5039 53.4667 84.7039 55.2C82.9706 56.8667 81.2706 58.3 79.6039 59.5C78.7372 60.1667 77.6372 60.7333 76.3039 61.2C75.0372 61.7333 73.7372 62 72.4039 62ZM96.4625 62C93.6625 62 91.6958 61.3 90.5625 59.9C89.4958 58.5 88.9625 56.7667 88.9625 54.7C88.9625 52.7667 89.3958 50.3333 90.2625 47.4C91.1958 44.4667 92.3958 41.3 93.8625 37.9C95.3292 34.5 96.8958 31.1333 98.5625 27.8C100.296 24.4 101.996 21.3 103.663 18.5C105.396 15.6333 106.896 13.3333 108.163 11.6C109.429 9.93333 110.796 8.26666 112.263 6.6C113.729 4.93333 115.363 3.53333 117.163 2.4C118.963 1.26666 120.996 0.699996 123.263 0.699996C124.796 0.699996 126.096 1.13333 127.163 2C128.296 2.8 128.863 4.03333 128.863 5.7C128.863 6.36666 128.729 7.13333 128.463 8C128.263 8.86666 127.896 9.76666 127.363 10.7C123.296 17.7667 118.429 24.3 112.763 30.3C107.163 36.3 101.229 41.8667 94.9625 47C94.6958 48 94.4292 48.9 94.1625 49.7C93.9625 50.5 93.7958 51.1333 93.6625 51.6C93.5958 51.9333 93.5625 52.3 93.5625 52.7C93.5625 53.0333 93.5625 53.3667 93.5625 53.7C93.5625 55.3 93.8292 56.7 94.3625 57.9C94.8958 59.1 95.7958 59.7 97.0625 59.7C98.2625 59.7 99.7292 59.1333 101.463 58C103.263 56.8 105.063 55.3667 106.863 53.7C108.663 51.9667 110.296 50.3 111.762 48.7C113.229 47.1 114.263 45.8667 114.863 45C115.063 44.8 115.263 44.7 115.462 44.7C115.729 44.7 115.929 44.8333 116.063 45.1C116.263 45.3667 116.263 45.7 116.063 46.1C115.396 47.2333 114.329 48.6333 112.863 50.3C111.396 51.9667 109.763 53.6667 107.963 55.4C106.163 57.0667 104.429 58.5333 102.763 59.8C100.696 61.2667 98.5958 62 96.4625 62ZM96.3625 43C98.8958 41.2667 101.529 39.0333 104.263 36.3C106.996 33.5 109.663 30.4667 112.263 27.2C114.929 23.9333 117.329 20.7 119.463 17.5C121.663 14.3 123.429 11.4 124.763 8.8C125.163 8.06666 125.429 7.43333 125.563 6.9C125.763 6.3 125.863 5.76666 125.863 5.3C125.863 4.03333 125.329 3.4 124.263 3.4C123.329 3.4 122.163 3.9 120.763 4.9C117.163 7.69999 113.829 11.3 110.763 15.7C107.696 20.0333 104.963 24.6 102.563 29.4C100.163 34.2 98.0958 38.7333 96.3625 43ZM129.3 26.2C128.433 26.2 127.533 26.1333 126.6 26C125.667 25.8 125.2 25.1667 125.2 24.1C125.2 23.9 125.633 23.4333 126.5 22.7C127.433 21.9667 128.367 21.2333 129.3 20.5C130.3 19.7 130.9 19.2333 131.1 19.1C132.233 18.1667 132.933 17.7 133.2 17.7C133.533 17.7 133.533 18.1333 133.2 19C132.867 19.8667 132.7 20.6333 132.7 21.3C132.7 21.6333 132.5 22.2 132.1 23C131.7 23.8 131.233 24.5333 130.7 25.2C130.167 25.8667 129.7 26.2 129.3 26.2ZM118.4 62C117.2 62 116.1 61.7333 115.1 61.2C114.167 60.6667 113.467 59.6667 113 58.2C112.933 58 112.867 57.8 112.8 57.6C112.8 57.4 112.8 57.1667 112.8 56.9C112.8 55.5667 113.1 53.9 113.7 51.9C114.3 49.9 115.033 47.9667 115.9 46.1C115.5 46.6333 115.033 47.3 114.5 48.1C113.967 48.8333 113.2 49.8 112.2 51C111.933 51.2667 111.633 51.4 111.3 51.4C110.833 51.4 110.6 51.1333 110.6 50.6C110.6 50.2 110.733 49.8667 111 49.6C112.733 47.4 114.267 45.4333 115.6 43.7C117 41.9667 118.033 40.5 118.7 39.3C118.7 39.2333 118.667 39.2 118.6 39.2C118.6 39.1333 118.6 39.0667 118.6 39C118.6 38.8 118.7 38.5 118.9 38.1C119.433 36.5 119.967 35.1667 120.5 34.1C121.1 32.9667 121.733 32.3333 122.4 32.2C122.533 32.2 122.667 32.2 122.8 32.2C122.933 32.1333 123.067 32.1 123.2 32.1C123.933 32.1 124.6 32.2667 125.2 32.6C125.8 32.9333 126.1 33.4333 126.1 34.1C126.1 34.7 125.867 35.4333 125.4 36.3C125 37.1667 124.467 38.2333 123.8 39.5C122.333 42.5667 121 45.3667 119.8 47.9C118.667 50.3667 118.033 52.4 117.9 54C117.833 54.2667 117.8 54.5333 117.8 54.8C117.8 55 117.8 55.2333 117.8 55.5C117.8 58.1667 118.667 59.5 120.4 59.5C121.467 59.5 122.833 58.9333 124.5 57.8C126.167 56.6 127.867 55.1667 129.6 53.5C131.333 51.7667 132.9 50.1333 134.3 48.6C135.767 47 136.767 45.8 137.3 45C137.5 44.8 137.7 44.7 137.9 44.7C138.167 44.7 138.367 44.8 138.5 45C138.7 45.2 138.733 45.4667 138.6 45.8C138 46.9333 136.967 48.3667 135.5 50.1C134.1 51.7667 132.5 53.4667 130.7 55.2C128.967 56.8667 127.267 58.3 125.6 59.5C124.733 60.1667 123.633 60.7333 122.3 61.2C121.033 61.7333 119.733 62 118.4 62ZM143.859 62.1C141.992 62.1 140.359 61.6667 138.959 60.8C136.625 59.4 135.459 56.8667 135.459 53.2C135.459 51.6667 135.725 49.9 136.259 47.9C136.725 46.2333 137.559 44.4333 138.759 42.5C139.959 40.5 141.359 38.6 142.959 36.8C144.625 35 146.425 33.5333 148.359 32.4C150.292 31.2667 152.225 30.7 154.159 30.7C154.959 30.7 155.659 30.8 156.259 31C157.059 31.2667 157.725 31.7667 158.259 32.5C158.859 33.1667 159.159 34.0333 159.159 35.1C159.159 36.2333 158.859 36.8667 158.259 37C157.725 37.1333 157.459 37 157.459 36.6C157.459 36.4667 157.459 36.3333 157.459 36.2C157.525 36.0667 157.559 35.9667 157.559 35.9C157.559 35.3667 157.392 34.9 157.059 34.5C156.792 34.0333 156.259 33.8 155.459 33.8C154.392 33.8 153.059 34.3667 151.459 35.5C149.925 36.6333 148.325 38.1667 146.659 40.1C145.059 41.9667 143.625 44.0333 142.359 46.3C141.159 48.5667 140.359 50.8333 139.959 53.1C139.892 53.4333 139.825 53.7667 139.759 54.1C139.759 54.3667 139.759 54.6667 139.759 55C139.759 56.5333 140.092 57.8333 140.759 58.9C141.492 59.9 142.625 60.4 144.159 60.4C146.025 60.4 147.825 59.7 149.559 58.3C151.292 56.8333 152.825 55.1 154.159 53.1C155.559 51.1 156.592 49.3333 157.259 47.8C157.792 46.6 158.159 45.5667 158.359 44.7C158.559 43.8333 158.659 43.1 158.659 42.5C158.659 41.9667 158.592 41.5 158.459 41.1C158.392 40.7 158.292 40.3667 158.159 40.1C158.025 39.7 157.959 39.4 157.959 39.2C157.959 38.6667 158.159 38.2333 158.559 37.9C159.025 37.5667 159.492 37.4 159.959 37.4C160.359 37.4 160.792 37.5333 161.259 37.8C161.792 37.9333 162.525 38.0333 163.459 38.1C164.392 38.1667 165.392 38.2 166.459 38.2C167.592 38.2 168.725 38.1667 169.859 38.1C171.059 38.0333 172.092 37.9 172.959 37.7C173.092 37.6333 173.292 37.6 173.559 37.6C174.025 37.6 174.259 37.7333 174.259 38C174.259 38.2667 174.025 38.5 173.559 38.7C171.225 39.7667 169.125 40.3333 167.259 40.4C165.459 40.4667 163.892 40.5 162.559 40.5C162.692 42.1667 162.325 43.9667 161.459 45.9C160.592 47.7667 159.692 49.4333 158.759 50.9C157.625 52.5667 156.325 54.2667 154.859 56C153.392 57.7333 151.759 59.2 149.959 60.4C148.159 61.5333 146.125 62.1 143.859 62.1Z" fill="#FACAD5"/>
</svg>
