<svg width="258" height="259" viewBox="0 0 258 259" fill="none" xmlns="http://www.w3.org/2000/svg">
<path d="M221.292 86.0264C219.815 86.9052 218.249 87.1248 216.593 86.6854C214.233 86.029 212.208 84.2796 210.517 81.4372C209.066 78.9978 208.398 76.5768 208.514 74.1745C208.134 74.4008 207.818 74.5582 207.568 74.6466C207.143 74.7477 206.751 74.4961 206.392 73.8919L213.509 69.6578L214.288 70.9671C213.155 71.7623 212.249 72.6343 211.571 73.583C209.973 75.8369 209.879 78.15 211.291 80.5223C211.664 81.149 212.093 81.6665 212.578 82.0747C213.967 83.1875 215.467 83.2646 217.079 82.3059C217.549 82.0263 217.948 81.6527 218.275 81.185C218.936 80.1558 219.197 78.3792 219.059 75.8553C218.878 73.0544 218.796 71.4664 218.816 71.0913C218.871 68.1796 219.828 66.1711 221.686 65.066C222.939 64.3204 224.284 64.1111 225.721 64.438C227.943 64.9644 229.86 66.5817 231.471 69.2897C232.696 71.3487 233.424 73.5667 233.656 75.9435C233.858 75.8237 234.044 75.7284 234.214 75.6576C234.705 75.5165 235.138 75.7593 235.51 76.3859L229.434 80.0008L228.655 78.6916C229.85 77.9502 230.718 77.0401 231.258 75.9613C232.1 74.2182 231.975 72.4291 230.883 70.5939C230.603 70.1239 230.27 69.7162 229.883 69.3709C228.698 68.3481 227.446 68.2296 226.126 69.0151C225.611 69.3214 225.185 69.7262 224.848 70.2296C224.166 71.2721 223.891 73.0263 224.025 75.4921C224.153 78.2035 224.225 79.7513 224.242 80.1354C224.133 82.9576 223.15 84.9213 221.292 86.0264Z" fill="#5F5F5F"/>
<path d="M222.107 109.594L218.508 97.2161L219.521 96.9217L220.557 100.485L241.037 94.5313L240.852 93.8936C240.605 93.0434 240.231 92.3655 239.732 91.8598C238.977 91.13 237.72 90.7226 235.959 90.6378L232.246 90.4564L231.918 89.3311L239.989 87.1476L245.638 106.578L237.654 109.061L237.327 107.936L240.365 105.792C240.789 105.478 241.154 105.196 241.461 104.944C242.843 103.729 243.273 102.221 242.749 100.42L242.564 99.7827L222.084 105.736L222.825 108.287C222.928 108.827 222.688 109.263 222.107 109.594Z" fill="#5F5F5F"/>
<path d="M224.014 141.471L223.906 131.003L224.96 130.992L224.989 133.765L232.458 130.758L232.378 122.985L224.849 120.25L224.872 122.437C224.874 122.594 224.862 122.737 224.837 122.868C224.789 123.207 224.452 123.379 223.827 123.386L223.753 116.199L224.807 116.188L224.833 118.688L247.303 127.01L247.333 129.901L225.047 139.351L225.059 140.522C225.061 140.679 225.049 140.822 225.025 140.953C224.976 141.292 224.639 141.464 224.014 141.471ZM233.625 130.277L242.573 126.708L233.555 123.441L233.625 130.277Z" fill="#5F5F5F"/>
<path d="M220.031 155.975L223.175 144.686L224.191 144.969L223.352 147.979L243.899 153.701L244.737 150.691L245.753 150.974L242.253 163.542C241.694 165.549 240.742 167.122 239.398 168.262C237.808 169.603 236.085 170.015 234.228 169.498C233.676 169.345 233.158 169.119 232.673 168.822C230.708 167.626 229.729 165.61 229.735 162.773L218.337 165.843L218.201 166.333C218.166 166.458 218.119 166.58 218.058 166.698C217.871 167.079 217.502 167.192 216.95 167.039L218.757 160.405L230.667 157.68L231.18 155.836L221.885 153.248L221.047 156.258L220.031 155.975ZM241.866 161.002L242.432 158.969L232.309 156.15L231.659 158.484C231.45 159.236 231.453 159.953 231.668 160.635C232.133 162.17 233.444 163.238 235.601 163.839C236.304 164.035 237.006 164.135 237.707 164.142C239.907 164.105 241.293 163.059 241.866 161.002Z" fill="#5F5F5F"/>
<path d="M207.015 183.633L213.585 172.542L214.492 173.079L212.601 176.272L230.951 187.141L231.29 186.57C231.741 185.808 231.98 185.072 232.007 184.362C232.024 183.312 231.461 182.116 230.319 180.774L227.911 177.94L228.509 176.932L235.621 181.327L225.309 198.736L218.037 194.611L218.634 193.602L222.276 194.352C222.795 194.447 223.251 194.521 223.644 194.572C225.476 194.749 226.87 194.031 227.826 192.418L228.164 191.847L209.814 180.977L208.46 183.263C208.136 183.707 207.655 183.83 207.015 183.633Z" fill="#5F5F5F"/>
<path d="M182.493 215.862C181.452 214.495 181.056 212.964 181.304 211.269C181.687 208.85 183.195 206.638 185.826 204.635C188.085 202.916 190.414 201.977 192.814 201.819C192.546 201.467 192.354 201.171 192.237 200.932C192.089 200.522 192.294 200.104 192.853 199.678L197.87 206.267L196.658 207.19C195.739 206.155 194.769 205.354 193.75 204.789C191.329 203.457 189.02 203.628 186.823 205.3C186.243 205.741 185.778 206.227 185.428 206.755C184.48 208.262 184.574 209.761 185.71 211.253C186.041 211.688 186.458 212.042 186.96 212.315C188.058 212.854 189.852 212.911 192.344 212.487C195.106 211.988 196.675 211.726 197.05 211.703C199.949 211.427 202.053 212.149 203.362 213.868C204.246 215.029 204.607 216.341 204.445 217.806C204.175 220.074 202.786 222.162 200.279 224.071C198.373 225.522 196.252 226.498 193.917 226.999C194.059 227.186 194.175 227.359 194.265 227.52C194.461 227.993 194.269 228.45 193.689 228.892L189.406 223.266L190.618 222.343C191.491 223.446 192.494 224.205 193.627 224.618C195.454 225.256 197.218 224.929 198.917 223.635C199.352 223.304 199.719 222.926 200.018 222.502C200.899 221.209 200.875 219.952 199.944 218.729C199.581 218.252 199.13 217.875 198.592 217.598C197.479 217.038 195.705 216.965 193.27 217.379C190.591 217.815 189.061 218.063 188.681 218.123C185.865 218.336 183.802 217.582 182.493 215.862Z" fill="#5F5F5F"/>
<path d="M162.342 235.254L163.389 234.821L165.213 236.983C165.375 237.17 165.549 237.351 165.735 237.528C167.257 239.096 169.005 239.473 170.978 238.656L175.057 236.969L171.339 227.981L164.409 230.848L163.961 229.765L170.891 226.898L166.904 217.261L162.825 218.948C162.368 219.137 161.955 219.364 161.586 219.63C160.363 220.558 159.822 222.078 159.963 224.19L160.163 227.024L159.117 227.457L156.394 220.467L174.442 213.001L174.845 213.975L171.958 215.17L180.11 234.878L182.998 233.684L183.401 234.658L165.353 242.124L162.342 235.254Z" fill="#5F5F5F"/>
<path d="M139.476 223.405L151.104 221.951L151.235 222.998L148.134 223.386L150.78 244.549L153.881 244.161L154.012 245.208L141.066 246.826C138.999 247.085 137.18 246.814 135.61 246.013C133.759 245.063 132.714 243.632 132.475 241.72C132.404 241.151 132.412 240.586 132.499 240.024C132.845 237.75 134.328 236.069 136.947 234.98L129.718 225.649L129.214 225.712C129.085 225.728 128.954 225.731 128.822 225.722C128.398 225.696 128.151 225.399 128.08 224.83L134.897 223.938L142.005 233.875L143.905 233.638L142.708 224.064L139.607 224.452L139.476 223.405ZM143.261 245.489L145.354 245.227L144.05 234.801L141.647 235.101C140.872 235.198 140.211 235.478 139.665 235.94C138.428 236.96 137.948 238.582 138.226 240.804C138.317 241.528 138.494 242.214 138.759 242.863C139.641 244.879 141.142 245.754 143.261 245.489Z" fill="#5F5F5F"/>
<path d="M113.221 222.443L114.032 222.564C114.624 222.652 115.06 222.823 115.338 223.075C115.66 223.386 116.02 224.414 116.418 226.159L121.207 246.463L123.178 246.757L123.022 247.8L112.591 246.243L112.746 245.2L115.799 245.656L111.631 228.327L103.358 243.799L106.449 244.26L106.293 245.303L99.7255 244.323L99.8812 243.28L101.813 243.568L113.221 222.443Z" fill="#5F5F5F"/>
<path d="M88.9031 215.22L99.8129 219.498L99.4278 220.48L96.5185 219.339L88.7317 239.195L91.641 240.336L91.256 241.318L80.3462 237.039L80.7312 236.058L83.6405 237.198L91.4273 217.343L89.4999 216.587C89.0098 216.339 88.8109 215.883 88.9031 215.22Z" fill="#5F5F5F"/>
<path d="M58.9517 215.39L59.8901 216.024L59.0921 218.738C59.0255 218.976 58.9698 219.222 58.9248 219.474C58.4556 221.609 59.1055 223.274 60.8745 224.471L64.5309 226.943L69.9795 218.886L63.7667 214.685L64.4232 213.714L70.636 217.915L76.4785 209.276L72.822 206.803C72.4121 206.526 71.9946 206.306 71.5696 206.145C70.1211 205.637 68.5548 206.024 66.8707 207.305L64.6166 209.035L63.6782 208.4L68.009 202.275L84.1881 213.216L83.5973 214.09L81.0086 212.339L69.0611 230.007L71.6498 231.757L71.059 232.631L54.8798 221.69L58.9517 215.39Z" fill="#5F5F5F"/>
<path d="M49.3546 184.096C51.9332 185.145 54.095 186.688 55.84 188.725C58.2966 191.593 59.3591 194.694 59.0277 198.03C58.6935 201.163 57.2508 203.822 54.6995 206.007C52.5438 207.854 50.1016 208.866 47.373 209.043C43.5512 209.265 40.2172 207.715 37.371 204.392C35.5921 202.315 34.4304 200.019 33.886 197.502C33.5865 197.793 33.3209 198.003 33.0892 198.133C32.6881 198.305 32.2673 198.134 31.8268 197.62L37.5947 192.524L38.4842 193.563C37.6081 194.862 36.9822 196.032 36.6062 197.075C35.8457 199.269 36.2618 201.296 37.8543 203.155C40.8898 206.658 45.1255 206.099 50.5613 201.477C52.2226 200.053 53.5153 198.74 54.4393 197.537C56.745 194.465 56.8221 191.673 54.6705 189.161C54.1283 188.528 53.5678 188.014 52.9888 187.618C50.8821 186.2 48.1408 186.302 44.7649 187.925L43.9263 186.946L49.7704 181.94C49.9568 182.157 50.0895 182.352 50.1685 182.525C50.3944 182.948 50.1231 183.472 49.3546 184.096Z" fill="#5F5F5F"/>
<path d="M24.7831 167.499L25.2661 168.523L23.1944 170.45C23.0157 170.62 22.8426 170.803 22.675 170.997C21.1819 172.593 20.8905 174.357 21.801 176.289L23.6831 180.281L32.4812 176.134L29.2834 169.35L30.3434 168.851L33.5412 175.635L42.9754 171.188L41.0933 167.195C40.8823 166.747 40.6354 166.346 40.3524 165.99C39.3661 164.813 37.8218 164.347 35.7193 164.589L32.8982 164.926L32.4152 163.901L39.2659 160.844L47.5935 178.511L46.6395 178.961L45.3071 176.134L26.0148 185.228L27.3472 188.055L26.3932 188.505L18.0656 170.838L24.7831 167.499Z" fill="#5F5F5F"/>
<path d="M27.4487 124.289C29.1653 124.202 30.6526 124.74 31.9107 125.902C33.6906 127.585 34.6639 130.078 34.8306 133.381C34.9738 136.216 34.4327 138.668 33.2073 140.738C33.6495 140.716 34.0019 140.724 34.2646 140.763C34.6873 140.872 34.9164 141.277 34.9519 141.98L26.6812 142.397L26.6043 140.876C27.9775 140.702 29.1855 140.354 30.2282 139.832C32.6946 138.587 33.8582 136.585 33.719 133.828C33.6822 133.1 33.5447 132.442 33.3064 131.855C32.5982 130.221 31.3077 129.452 29.4351 129.547C28.889 129.574 28.3617 129.718 27.8533 129.979C26.7885 130.58 25.7274 132.029 24.67 134.324C23.5216 136.886 22.8513 138.327 22.659 138.65C21.2492 141.198 19.465 142.527 17.3063 142.636C15.8498 142.709 14.5628 142.266 13.4452 141.305C11.7266 139.802 10.7878 137.476 10.6289 134.329C10.5081 131.936 10.9004 129.635 11.8057 127.425C11.5717 127.437 11.3629 127.435 11.1796 127.418C10.6788 127.313 10.4101 126.896 10.3733 126.168L17.4346 125.811L17.5114 127.333C16.1083 127.43 14.916 127.829 13.9345 128.53C12.3758 129.678 11.6503 131.318 11.7579 133.451C11.7855 133.997 11.8898 134.513 12.0708 135C12.6398 136.457 13.6916 137.147 15.2261 137.07C15.8243 137.039 16.3899 136.881 16.9229 136.593C18.0137 135.99 19.0762 134.568 20.1102 132.325C21.2639 129.868 21.9232 128.466 22.0881 128.119C23.5032 125.674 25.29 124.398 27.4487 124.289Z" fill="#5F5F5F"/>
<path d="M37.7416 103.071L35.1388 115.696L34.1058 115.483L34.8551 111.849L13.9663 107.542L13.8322 108.193C13.6534 109.06 13.6667 109.834 13.8721 110.514C14.1982 111.512 15.1195 112.46 16.6362 113.357L19.8349 115.253L19.5983 116.401L11.4426 114.56L15.5283 94.7425L23.747 96.2774L23.5104 97.4252L19.8227 97.9013C19.3013 97.9799 18.8463 98.0589 18.4576 98.1384C16.6676 98.567 15.5832 99.6995 15.2046 101.536L15.0705 102.186L35.9594 106.493L36.4957 103.891C36.6571 103.366 37.0724 103.093 37.7416 103.071Z" fill="#5F5F5F"/>
<path d="M50.9508 73.9991L46.1549 83.3047L45.2174 82.8216L46.4879 80.3563L38.4791 79.5246L34.918 86.4344L40.2962 92.3702L41.2984 90.4258C41.3699 90.2869 41.4471 90.1655 41.5299 90.0617C41.7313 89.7847 42.1098 89.7893 42.6653 90.0756L39.3727 96.4645L38.4352 95.9814L39.5804 93.7591L23.6035 75.9011L24.9277 73.3316L49.0469 75.391L49.5838 74.3493C49.6553 74.2104 49.7325 74.0891 49.8153 73.9852C50.0167 73.7082 50.3952 73.7128 50.9508 73.9991ZM37.2227 79.4044L27.6439 78.3789L34.091 85.4808L37.2227 79.4044Z" fill="#5F5F5F"/>
<path d="M61.2503 63.0367L53.1955 71.5484L52.4294 70.8234L54.5774 68.5536L39.0861 53.8939L36.9381 56.1637L36.1721 55.4387L45.1398 45.9624C46.5717 44.4492 48.1483 43.5031 49.8694 43.124C51.902 42.6811 53.6181 43.1219 55.0178 44.4465C55.4339 44.8403 55.7869 45.2819 56.0767 45.7713C57.2549 47.7467 57.1785 49.987 55.8476 52.4921L67.3592 55.1036L67.7082 54.7348C67.7977 54.6402 67.8967 54.5546 68.0051 54.4779C68.3482 54.229 68.7279 54.3014 69.144 54.6952L64.4469 59.7156L52.6439 56.5595L51.3283 57.9497L58.3363 64.5815L60.4842 62.3117L61.2503 63.0367ZM44.2948 48.3896L42.845 49.9217L50.4771 57.1442L52.1418 55.3851C52.6788 54.8177 53.0113 54.1822 53.1392 53.4787C53.4458 51.9044 52.7858 50.3476 51.1591 48.8082C50.6295 48.307 50.0561 47.89 49.439 47.557C47.4773 46.5611 45.7626 46.8386 44.2948 48.3896Z" fill="#5F5F5F"/>
<path d="M85.6813 44.6667L74.6905 51.4024L74.1394 50.5032L77.3034 48.5641L66.1589 30.3793L65.5927 30.7263C64.8378 31.1889 64.2823 31.7279 63.9263 32.3431C63.4213 33.2634 63.36 34.5838 63.7424 36.3042L64.547 39.9344L63.5478 40.5468L59.313 33.3377L76.5653 22.7647L81.0665 29.8105L80.0674 30.4228L77.1979 28.0581C76.7839 27.7314 76.4151 27.4535 76.0914 27.2243C74.5544 26.2115 72.9865 26.195 71.3879 27.1747L70.8217 27.5217L81.9662 45.7065L84.231 44.3186C84.7245 44.0772 85.2079 44.1933 85.6813 44.6667Z" fill="#5F5F5F"/>
<path d="M122.422 27.6311C122.704 29.3267 122.339 30.8656 121.327 32.2477C119.858 34.2075 117.491 35.4582 114.229 35.9997C111.429 36.4645 108.931 36.2059 106.735 35.224C106.807 35.6607 106.839 36.0118 106.831 36.2773C106.77 36.7096 106.393 36.9834 105.7 37.0985L104.344 28.929L105.847 28.6796C106.176 30.0241 106.659 31.1846 107.296 32.1612C108.814 34.4698 110.935 35.3981 113.658 34.9461C114.377 34.8267 115.015 34.6152 115.572 34.3117C117.114 33.4222 117.731 32.0526 117.424 30.2029C117.335 29.6634 117.132 29.156 116.815 28.6805C116.097 27.6911 114.537 26.8017 112.136 26.0123C109.46 25.1628 107.952 24.6609 107.609 24.5066C104.917 23.3959 103.394 21.7744 103.04 19.6421C102.801 18.2035 103.095 16.8744 103.923 15.6548C105.221 13.7762 107.425 12.5789 110.533 12.063C112.897 11.6707 115.228 11.7986 117.526 12.4466C117.488 12.2154 117.467 12.0078 117.462 11.8237C117.51 11.3142 117.893 10.9998 118.613 10.8804L119.77 17.8553L118.267 18.1048C118.011 16.7217 117.479 15.5826 116.671 14.6873C115.353 13.2693 113.641 12.7351 111.534 13.0848C110.995 13.1743 110.494 13.3366 110.031 13.5718C108.648 14.303 108.082 15.4264 108.334 16.9421C108.432 17.533 108.654 18.0769 109 18.5737C109.723 19.5889 111.257 20.4825 113.603 21.2547C116.175 22.1213 117.643 22.6167 118.007 22.7411C120.597 23.8689 122.068 25.4989 122.422 27.6311Z" fill="#5F5F5F"/>
<path d="M149.299 19.9037L148.171 19.7974L147.569 17.0333C147.513 16.7927 147.444 16.5508 147.362 16.3076C146.749 14.2096 145.38 13.0604 143.254 12.86L138.859 12.4457L137.946 22.1294L145.413 22.8332L145.303 23.9999L137.836 23.2961L136.858 33.6797L141.252 34.094C141.745 34.1404 142.216 34.1325 142.667 34.0704C144.181 33.8208 145.37 32.7296 146.232 30.7968L147.38 28.1977L148.507 28.304L147.648 35.7562L128.203 33.9233L128.302 32.8732L131.413 33.1665L133.415 11.9325L130.303 11.6392L130.402 10.5892L149.847 12.4221L149.299 19.9037Z" fill="#5F5F5F"/>
<path d="M163.979 41.0642L153.019 36.9158L153.392 35.9294L156.315 37.0356L163.865 17.0886L160.942 15.9823L161.316 14.9959L173.518 19.6145C175.466 20.352 176.947 21.4416 177.961 22.8834C179.153 24.5878 179.409 26.3411 178.726 28.1434C178.524 28.6793 178.252 29.1752 177.913 29.6314C176.544 31.4803 174.448 32.274 171.623 32.0123L173.654 43.6405L174.129 43.8202C174.251 43.8663 174.368 43.9246 174.481 43.995C174.843 44.2156 174.922 44.5938 174.719 45.1296L168.276 42.7324L166.635 30.6254L164.845 29.9479L161.429 38.9715L164.352 40.0778L163.979 41.0642ZM170.952 19.7712L168.98 19.0245L165.26 28.8519L167.525 29.7092C168.256 29.9858 168.97 30.0474 169.669 29.8941C171.239 29.5697 172.421 28.3603 173.214 26.2657C173.472 25.5838 173.636 24.8939 173.705 24.1961C173.867 22.0021 172.949 20.5271 170.952 19.7712Z" fill="#5F5F5F"/>
<path d="M186.741 54.1838L186.081 53.6977C185.598 53.3427 185.293 52.9887 185.165 52.6356C185.025 52.2098 185.187 51.1328 185.651 49.4045L190.905 29.2152L189.3 28.0345L189.925 27.185L198.42 33.4361L197.795 34.2855L195.31 32.4565L190.896 49.724L205.44 39.9115L202.923 38.0593L203.548 37.2098L208.897 41.1457L208.272 41.9952L206.699 40.8376L186.741 54.1838Z" fill="#5F5F5F"/>
<path d="M204.865 71.9329L197.219 63.0523L198.018 62.3641L200.057 64.7323L216.22 50.8164L214.181 48.4482L214.981 47.7601L222.627 56.6408L221.827 57.3289L219.788 54.9607L203.626 68.8766L204.976 70.4455C205.294 70.8939 205.257 71.3897 204.865 71.9329Z" fill="#5F5F5F"/>
</svg>
