<svg width="571" height="315" viewBox="0 0 571 315" fill="none" xmlns="http://www.w3.org/2000/svg">
<g filter="url(#filter0_d_556_2321)">
<path d="M16.7058 192.902C12.9887 192.113 10.778 190.007 10.0736 186.586C9.36922 183.165 9.44736 179.91 10.308 176.822C12.4916 171.356 15.0872 165.876 18.0948 160.381C21.3397 154.732 24.4659 149.16 27.4736 143.665C28.1558 142.379 29.019 140.722 30.0631 138.695C31.1072 136.668 32.1929 134.445 33.3201 132.026C31.535 133.692 29.5127 135.511 27.2533 137.485C25.1894 139.5 23.007 141.592 20.7059 143.761C19.7156 144.573 18.7313 144.875 17.7531 144.667C16.9706 144.501 16.4668 143.985 16.2418 143.119C16.0584 142.058 16.4619 141.121 17.4522 140.309C23.2818 135.005 27.9671 130.275 31.5079 126.121C35.0902 121.77 37.6822 118.232 39.2838 115.505C40.5064 111.675 40.7031 108.343 39.8741 105.509C39.2822 102.521 37.3233 100.674 33.9976 99.967C33.4107 99.8423 32.803 99.8154 32.1745 99.8864C31.5876 99.7617 30.8821 99.714 30.058 99.7434C29.8624 99.7018 29.646 99.7581 29.4088 99.9122C29.4088 99.9122 29.311 99.8914 29.1153 99.8498C28.5284 99.7251 28.2973 99.3693 28.422 98.7824C28.5467 98.1955 29.3622 97.2442 30.8685 95.9286C31.7758 95.5079 33.3262 95.4284 35.5197 95.69C37.7548 95.7559 39.8713 95.8989 41.8692 96.1189C43.8671 96.3389 45.0617 96.4905 45.4529 96.5736C48.1918 97.1555 50.6935 97.8915 52.9579 98.7816C55.2224 99.6716 56.9293 101.261 58.0788 103.55C58.8491 104.736 59.3615 106.174 59.6158 107.864C59.8702 109.553 59.6355 111.139 58.9117 112.621C58.6623 113.795 57.639 115.724 55.8417 118.409C54.2817 120.94 52.4636 123.723 50.3876 126.758C48.5072 129.835 46.6891 132.618 44.9334 135.107C43.4149 137.442 42.4539 139.078 42.0504 140.015C38.9303 145.077 35.6855 150.726 32.3159 156.962C28.9464 163.198 27.0832 168.118 26.7263 171.723C38.498 161.547 50.4655 151.413 62.6285 141.32C74.7916 131.228 87.5501 122.182 100.904 114.182C106.36 110.639 111.83 107.507 117.315 104.788C122.841 101.873 128.789 99.8647 135.156 98.764C137.907 98.3262 140.359 98.3359 142.511 98.7931C145.641 99.4581 148.255 100.627 150.353 102.3C152.452 103.972 153.726 105.674 154.176 107.405C154.833 108.159 154.996 109.318 154.664 110.883C154.165 113.23 153.133 114.238 151.568 113.905C151.177 113.822 150.477 113.265 149.47 112.233C148.699 111.047 147.336 110.246 145.38 109.83C143.423 109.415 141.565 109.02 139.804 108.646C135.696 107.773 130.075 108.726 122.942 111.504C116.004 114.324 108.21 118.29 99.5583 123.404C91.1023 128.559 82.5216 134.301 73.8162 140.63C65.1108 146.959 56.8945 153.392 49.1672 159.929C41.6357 166.507 35.2485 172.511 30.0057 177.94C24.9586 183.41 21.8862 187.767 20.7883 191.01C20.5805 191.988 19.9459 192.569 18.8846 192.752C17.8233 192.935 17.097 192.986 16.7058 192.902ZM123.79 209.213C118.312 208.05 113.789 205.76 110.221 202.343C104.247 196.78 102.403 188.619 104.689 177.859C105.645 173.36 107.529 168.342 110.341 162.805C112.75 158.205 116.317 153.443 121.044 148.517C125.812 143.397 131.105 138.694 136.923 134.409C142.936 130.166 149.132 126.985 155.512 124.864C161.892 122.744 167.919 122.286 173.592 123.492C175.94 123.991 177.932 124.721 179.568 125.682C181.749 126.963 183.394 128.846 184.502 131.33C185.847 133.661 186.187 136.391 185.522 139.521C184.815 142.847 183.54 144.518 181.696 144.535C180.048 144.594 179.348 144.037 179.598 142.863C179.681 142.472 179.764 142.08 179.847 141.689C180.126 141.339 180.286 141.067 180.328 140.871C180.66 139.306 180.462 137.833 179.733 136.451C179.242 134.915 177.822 133.898 175.474 133.399C172.344 132.734 168.078 133.566 162.677 135.894C157.47 138.264 151.819 141.766 145.723 146.4C139.864 150.88 134.369 156.051 129.239 161.913C124.304 167.816 120.544 173.969 117.957 180.371C117.553 181.308 117.15 182.245 116.746 183.181C116.58 183.964 116.393 184.844 116.185 185.822C115.229 190.322 115.397 194.344 116.688 197.89C118.217 201.282 121.231 203.456 125.73 204.412C131.208 205.576 136.926 204.644 142.886 201.616C148.887 198.393 154.467 194.262 159.627 189.225C164.982 184.229 169.116 179.688 172.028 175.605C174.341 172.416 176.061 169.612 177.189 167.193C178.316 164.775 179.067 162.685 179.441 160.925C179.773 159.36 179.868 157.949 179.727 156.692C179.78 155.476 179.695 154.436 179.47 153.57C179.328 152.313 179.319 151.391 179.444 150.804C179.776 149.239 180.634 148.092 182.015 147.364C183.592 146.676 185.066 146.478 186.435 146.769C187.609 147.019 188.797 147.68 190.001 148.753C191.483 149.477 193.572 150.228 196.269 151.005C198.967 151.783 201.881 152.504 205.011 153.169C208.336 153.876 211.683 154.485 215.05 154.996C218.613 155.548 221.729 155.801 224.397 155.755C224.829 155.642 225.437 155.669 226.22 155.835C227.589 156.126 228.191 156.663 228.024 157.446C227.858 158.228 227.028 158.767 225.534 159.063C218.022 160.739 211.506 161.092 205.987 160.124C200.663 159.197 196.045 158.318 192.132 157.487C191.484 162.461 189.286 167.515 185.537 172.648C181.83 177.585 178.15 181.915 174.497 185.637C170.132 189.821 165.257 193.999 159.873 198.171C154.488 202.343 148.781 205.629 142.75 208.028C136.762 210.231 130.441 210.627 123.79 209.213ZM272.528 130.711C269.985 130.17 267.385 129.414 264.73 128.44C262.115 127.272 261.141 125.122 261.806 121.992C261.931 121.405 263.493 120.306 266.494 118.694C269.69 117.124 272.886 115.554 276.082 113.984C279.515 112.26 281.567 111.265 282.237 110.998C286.144 108.966 288.49 108.033 289.272 108.199C290.25 108.407 289.98 109.678 288.462 112.014C286.943 114.349 285.976 116.495 285.56 118.452C285.353 119.43 284.412 120.968 282.74 123.066C281.067 125.164 279.241 127.025 277.26 128.649C275.279 130.273 273.702 130.96 272.528 130.711ZM218.222 228.97C214.7 228.222 211.639 226.753 209.037 224.565C206.63 222.418 205.2 219.047 204.745 214.452C204.674 213.824 204.603 213.195 204.532 212.567C204.656 211.98 204.802 211.295 204.968 210.513C205.799 206.6 207.719 201.896 210.727 196.401C213.734 190.906 217.092 185.69 220.799 180.753C219.292 182.068 217.507 183.734 215.443 185.749C213.421 187.568 210.569 189.927 206.886 192.825C205.937 193.441 204.974 193.645 203.996 193.438C202.626 193.147 202.108 192.219 202.44 190.654C202.69 189.48 203.289 188.585 204.237 187.968C210.696 182.593 216.421 177.778 221.415 173.523C226.604 169.309 230.55 165.65 233.255 162.544C233.296 162.348 233.219 162.23 233.024 162.188C233.065 161.992 233.107 161.797 233.148 161.601C233.273 161.014 233.754 160.196 234.59 159.147C237.153 154.784 239.549 151.204 241.779 148.407C244.246 145.455 246.5 143.991 248.539 144.016C248.93 144.099 249.322 144.182 249.713 144.265C250.146 144.153 250.558 144.138 250.949 144.221C253.101 144.678 254.953 145.583 256.506 146.935C258.059 148.288 258.628 149.942 258.212 151.898C257.838 153.659 256.696 155.665 254.786 157.918C253.072 160.211 250.842 163.009 248.096 166.31C241.88 174.395 236.222 181.78 231.121 188.466C226.257 194.998 223.131 200.57 221.742 205.182C221.38 205.923 221.116 206.685 220.95 207.467C220.825 208.054 220.68 208.739 220.514 209.522C218.851 217.347 220.563 221.8 225.649 222.881C228.779 223.546 233.143 222.735 238.741 220.448C244.38 217.966 250.262 214.82 256.388 211.01C262.555 207.004 268.17 203.188 273.235 199.561C278.536 195.78 282.219 192.882 284.283 190.867C284.994 190.405 285.644 190.236 286.23 190.361C287.013 190.527 287.538 190.945 287.804 191.615C288.266 192.327 288.198 193.13 287.599 194.025C285.131 196.977 281.206 200.539 275.821 204.711C270.673 208.729 264.918 212.72 258.556 216.684C252.43 220.494 246.548 223.64 240.909 226.123C237.95 227.539 234.369 228.516 230.165 229.054C226.115 229.829 222.134 229.801 218.222 228.97ZM288.822 243.97C280.605 242.224 275.27 238.944 272.817 234.129C270.56 229.356 270.076 223.937 271.364 217.872C272.57 212.199 275.358 205.328 279.73 197.261C284.298 189.235 289.794 180.69 296.218 171.627C302.641 162.565 309.338 153.662 316.307 144.919C323.513 136.023 330.434 127.986 337.071 120.808C343.945 113.477 349.781 107.662 354.578 103.366C359.334 99.2646 364.384 95.2259 369.727 91.2495C375.07 87.2731 380.736 84.1831 386.725 81.9796C392.713 79.7761 399.034 79.381 405.685 80.7942C410.185 81.7502 413.729 83.8323 416.319 87.0406C419.146 90.0948 420.04 94.0673 419.001 98.9581C418.585 100.914 417.716 103.081 416.393 105.458C415.266 107.877 413.629 110.289 411.482 112.695C395.142 130.897 376.788 147.035 356.418 161.109C336.244 175.224 315.362 187.86 293.772 199.017C292.366 201.785 291.022 204.26 289.741 206.442C288.655 208.664 287.771 210.419 287.089 211.705C286.686 212.642 286.359 213.697 286.11 214.871C285.902 215.849 285.694 216.827 285.486 217.805C284.489 222.501 284.398 226.775 285.215 230.629C286.032 234.483 288.299 236.805 292.016 237.595C295.538 238.343 300.195 237.594 305.988 235.349C312.018 232.95 318.194 229.866 324.515 226.098C330.878 222.133 336.71 218.261 342.012 214.48C347.313 210.699 351.114 207.724 353.415 205.555C354.127 205.093 354.776 204.924 355.363 205.049C356.146 205.215 356.649 205.731 356.874 206.597C357.295 207.504 357.087 208.482 356.251 209.531C353.588 212.442 349.585 215.885 344.242 219.861C338.899 223.838 333.046 227.808 326.683 231.772C320.362 235.541 314.361 238.764 308.681 241.442C301.701 244.457 295.082 245.3 288.822 243.97ZM300.374 188.152C308.889 184.645 318.009 179.733 327.734 173.416C337.501 166.904 347.217 159.665 356.884 151.7C366.746 143.777 375.804 135.785 384.06 127.725C392.511 119.706 399.503 112.297 405.037 105.499C406.668 103.596 407.845 101.904 408.569 100.422C409.53 98.786 410.156 97.2833 410.447 95.9139C411.236 92.1969 410.066 90.0058 406.936 89.3408C404.197 88.7589 400.462 89.4987 395.73 91.5604C383.42 97.5325 371.394 106.018 359.652 117.018C347.951 127.822 337.083 139.519 327.047 152.108C317.012 164.698 308.121 176.712 300.374 188.152ZM407.503 159.388C404.96 158.848 402.361 158.091 399.705 157.118C397.091 155.949 396.116 153.8 396.781 150.669C396.906 150.083 398.469 148.983 401.469 147.372C404.665 145.802 407.861 144.232 411.057 142.661C414.491 140.937 416.542 139.942 417.212 139.675C421.12 137.643 423.465 136.71 424.248 136.876C425.226 137.084 424.956 138.356 423.437 140.691C421.919 143.027 420.951 145.173 420.536 147.129C420.328 148.107 419.388 149.645 417.715 151.743C416.043 153.842 414.216 155.703 412.235 157.326C410.255 158.95 408.677 159.637 407.503 159.388ZM353.197 257.647C349.676 256.899 346.614 255.431 344.012 253.242C341.606 251.095 340.175 247.724 339.72 243.129C339.649 242.501 339.578 241.872 339.507 241.244C339.632 240.657 339.777 239.972 339.944 239.19C340.775 235.277 342.694 230.573 345.702 225.079C348.71 219.584 352.067 214.367 355.774 209.43C354.268 210.746 352.483 212.411 350.419 214.426C348.397 216.246 345.544 218.604 341.861 221.502C340.913 222.119 339.949 222.323 338.971 222.115C337.602 221.824 337.083 220.896 337.416 219.331C337.665 218.157 338.264 217.262 339.213 216.646C345.671 211.271 351.397 206.455 356.39 202.2C361.579 197.987 365.526 194.327 368.23 191.221C368.272 191.026 368.195 190.907 367.999 190.865C368.041 190.67 368.082 190.474 368.124 190.279C368.249 189.692 368.729 188.874 369.565 187.824C372.128 183.462 374.524 179.882 376.754 177.084C379.222 174.132 381.475 172.669 383.515 172.693C383.906 172.776 384.297 172.859 384.688 172.943C385.121 172.83 385.533 172.815 385.925 172.898C388.077 173.356 389.929 174.26 391.482 175.613C393.035 176.965 393.603 178.619 393.188 180.576C392.814 182.336 391.672 184.343 389.762 186.595C388.048 188.889 385.818 191.686 383.072 194.988C376.856 203.073 371.197 210.458 366.096 217.144C361.233 223.676 358.106 229.247 356.718 233.86C356.356 234.601 356.092 235.362 355.925 236.145C355.801 236.732 355.655 237.416 355.489 238.199C353.826 246.024 355.538 250.477 360.625 251.558C363.755 252.223 368.119 251.412 373.716 249.126C379.355 246.643 385.237 243.497 391.363 239.687C397.53 235.681 403.146 231.865 408.21 228.238C413.512 224.457 417.194 221.56 419.258 219.544C419.97 219.082 420.619 218.913 421.206 219.038C421.988 219.204 422.513 219.623 422.78 220.293C423.242 221.004 423.173 221.808 422.574 222.703C420.107 225.654 416.181 229.216 410.796 233.388C405.649 237.406 399.894 241.397 393.531 245.361C387.405 249.172 381.523 252.318 375.884 254.8C372.925 256.216 369.344 257.193 365.14 257.731C361.091 258.507 357.11 258.479 353.197 257.647ZM427.843 273.813C422.365 272.65 417.842 270.36 414.274 266.944C408.3 261.381 406.456 253.219 408.742 242.459C409.698 237.96 411.582 232.942 414.394 227.405C416.803 222.805 420.37 218.043 425.097 213.118C429.865 207.997 435.158 203.294 440.976 199.01C446.989 194.767 453.185 191.585 459.565 189.465C465.945 187.344 471.972 186.887 477.645 188.092C479.993 188.591 481.985 189.321 483.621 190.282C485.802 191.563 487.447 193.446 488.555 195.93C489.9 198.261 490.24 200.991 489.575 204.121C488.868 207.447 487.593 209.118 485.749 209.136C484.101 209.194 483.401 208.637 483.651 207.463C483.734 207.072 483.817 206.68 483.9 206.289C484.179 205.94 484.339 205.667 484.381 205.471C484.713 203.906 484.515 202.433 483.786 201.051C483.295 199.515 481.875 198.498 479.527 197.999C476.397 197.334 472.131 198.166 466.73 200.494C461.523 202.864 455.872 206.366 449.776 211C443.917 215.48 438.422 220.651 433.292 226.513C428.357 232.417 424.597 238.569 422.01 244.971C421.606 245.908 421.203 246.845 420.799 247.781C420.633 248.564 420.446 249.444 420.238 250.422C419.282 254.922 419.45 258.945 420.741 262.49C422.27 265.882 425.284 268.056 429.783 269.012C435.261 270.176 440.979 269.244 446.939 266.216C452.94 262.993 458.52 258.862 463.68 253.825C469.035 248.829 473.169 244.289 476.081 240.205C478.394 237.016 480.114 234.212 481.242 231.794C482.369 229.375 483.12 227.285 483.494 225.525C483.826 223.96 483.921 222.549 483.78 221.292C483.833 220.076 483.748 219.036 483.523 218.17C483.381 216.913 483.372 215.991 483.497 215.404C483.829 213.839 484.687 212.692 486.068 211.964C487.645 211.276 489.119 211.078 490.488 211.369C491.662 211.619 492.85 212.28 494.054 213.354C495.536 214.077 497.625 214.828 500.322 215.606C503.02 216.383 505.934 217.104 509.064 217.769C512.389 218.476 515.736 219.085 519.103 219.596C522.666 220.148 525.782 220.401 528.45 220.355C528.882 220.242 529.49 220.269 530.273 220.435C531.642 220.726 532.244 221.263 532.077 222.046C531.911 222.828 531.081 223.367 529.587 223.663C522.075 225.339 515.559 225.692 510.04 224.724C504.716 223.798 500.098 222.919 496.185 222.087C495.537 227.061 493.339 232.115 489.59 237.248C485.883 242.185 482.203 246.515 478.55 250.237C474.185 254.421 469.31 258.599 463.926 262.771C458.541 266.943 452.834 270.229 446.803 272.628C440.815 274.832 434.494 275.227 427.843 273.813Z" fill="#FACAD5"/>
</g>
<defs>
<filter id="filter0_d_556_2321" x="0.554688" y="0.192383" width="569.778" height="314.737" filterUnits="userSpaceOnUse" color-interpolation-filters="sRGB">
<feFlood flood-opacity="0" result="BackgroundImageFix"/>
<feColorMatrix in="SourceAlpha" type="matrix" values="0 0 0 0 0 0 0 0 0 0 0 0 0 0 0 0 0 0 127 0" result="hardAlpha"/>
<feOffset dx="5" dy="6"/>
<feGaussianBlur stdDeviation="5"/>
<feComposite in2="hardAlpha" operator="out"/>
<feColorMatrix type="matrix" values="0 0 0 0 0.5875 0 0 0 0 0.5875 0 0 0 0 0.5875 0 0 0 0.25 0"/>
<feBlend mode="normal" in2="BackgroundImageFix" result="effect1_dropShadow_556_2321"/>
<feBlend mode="normal" in="SourceGraphic" in2="effect1_dropShadow_556_2321" result="shape"/>
</filter>
</defs>
</svg>
