<svg width="460" height="129" viewBox="0 0 460 129" fill="none" xmlns="http://www.w3.org/2000/svg">
<path d="M19.933 7.44631L29.3136 9.43935L28.5425 13.0683L19.1619 11.0753L19.933 7.44631ZM18.4418 14.4647L27.8224 16.4577L27.0441 20.1209L17.6635 18.1279L18.4418 14.4647ZM15.1844 3.86116C19.9089 4.86495 22.8396 8.92262 21.8867 13.4075C20.9339 17.8924 16.6066 20.408 11.882 19.4042C7.12326 18.3932 4.19255 14.3355 5.14543 9.85059C6.0983 5.3657 10.4256 2.85009 15.1844 3.86116ZM14.3624 7.72981C12.0344 7.23519 10.0244 8.27516 9.49337 10.7744C8.96966 13.2394 10.3687 15.0752 12.6967 15.5698C15.0247 16.0644 17.0493 14.956 17.573 12.491C18.104 9.99179 16.6905 8.22443 14.3624 7.72981ZM28.7558 4.99132L33.3092 5.95874L29.3667 24.5146L24.8134 23.5471L28.7558 4.99132ZM18.4785 22.881C25.1545 24.2994 28.8366 27.5149 28.0001 31.452C27.1636 35.3891 22.4995 36.7955 15.8235 35.3771C9.14755 33.9587 5.45813 30.7775 6.29462 26.8404C7.13112 22.9033 11.8025 21.4626 18.4785 22.881ZM17.7293 26.4073C13.5868 25.5272 11.1723 25.9445 10.7795 27.7933C10.3867 29.642 12.4229 31.0049 16.5655 31.8851C20.7422 32.7725 23.1225 32.3479 23.5152 30.4991C23.908 28.6504 21.9061 27.2947 17.7293 26.4073ZM44.8569 10.2013L48.5886 10.9941L47.9921 13.8015C46.6537 20.1008 42.7365 25.0651 36.2673 25.8733L34.6003 21.7621C40.2851 21.1093 43.3439 17.3223 44.2604 13.0086L44.8569 10.2013ZM45.7812 10.3977L49.4787 11.1832L48.7877 14.4356C47.9803 18.2358 49.3173 22.3843 53.9542 24.9796L50.8427 28.004C45.5327 24.872 43.8755 19.3674 45.0902 13.6501L45.7812 10.3977ZM58.6752 11.3481L63.2286 12.3155L59.2498 31.0425L54.6964 30.0751L58.6752 11.3481ZM60.4053 19.3729L65.883 20.5367L65.0829 24.3026L59.6051 23.1388L60.4053 19.3729ZM48.7578 29.5648C55.3311 30.9613 58.9863 34.1353 58.1716 37.9697C57.3497 41.8383 52.7271 43.2178 46.1538 41.8212C39.5463 40.4173 35.8838 37.2776 36.7058 33.409C37.5204 29.5746 42.1503 28.1609 48.7578 29.5648ZM48.0086 33.091C43.9688 32.2327 41.5959 32.6231 41.2249 34.3691C40.8467 36.1494 42.8632 37.4366 46.903 38.2949C50.9428 39.1532 53.2743 38.7898 53.6525 37.0095C54.0235 35.2635 52.0485 33.9494 48.0086 33.091ZM91.6074 18.345L96.195 19.3197L89.4594 51.022L84.8718 50.0473L91.6074 18.345ZM81.5627 19.6459L86.0819 20.606C84.0234 30.2947 79.0492 37.5392 66.6291 40.5896L65.0378 36.4587C75.0756 34.0113 79.5843 28.958 81.3882 20.4675L81.5627 19.6459ZM70.8469 17.3691L83.7196 20.1041L82.9558 23.6989L70.0832 20.9639L70.8469 17.3691ZM121.657 24.7651L126.21 25.7325L121.256 49.0471L116.703 48.0797L121.657 24.7651ZM123.018 34.3574L128.53 35.5285L127.737 39.2602L122.225 38.0891L123.018 34.3574ZM99.9302 48.8814L121.499 53.4639L120.728 57.0929L99.1592 52.5104L99.9302 48.8814ZM101.319 42.3423L105.873 43.3098L104.316 50.6362L99.7629 49.6688L101.319 42.3423ZM101.704 22.8516L106.223 23.8118L105.255 28.3651L111.452 29.6817L112.419 25.1283L116.938 26.0885L113.52 42.1793L98.2848 38.9424L101.704 22.8516ZM104.521 31.8229L103.56 36.3421L109.757 37.6586L110.717 33.1395L104.521 31.8229ZM142.512 31.343C147.511 32.405 150.551 36.4503 149.584 41.0036C148.609 45.5912 144.186 48.0508 139.188 46.9888C134.224 45.9341 131.115 41.8743 132.089 37.2867C133.057 32.7333 137.548 30.2883 142.512 31.343ZM141.683 35.2459C139.252 34.7295 137.098 35.7746 136.574 38.2396C136.043 40.7388 137.586 42.5695 140.017 43.0859C142.448 43.6023 144.602 42.5572 145.133 40.058C145.657 37.593 144.114 35.7623 141.683 35.2459ZM154.672 31.7081L159.225 32.6755L152.468 64.4806L147.914 63.5131L154.672 31.7081ZM128.056 52.567L128.286 48.7874C133.867 49.973 141.653 51.5557 148.54 51.9813L148.184 55.3407C141.011 55.2481 133.533 53.7308 128.056 52.567ZM166.611 59.8283L195.301 65.9238L194.508 69.6555L165.818 63.56L166.611 59.8283ZM180.114 55.2189L184.667 56.1863L182.79 65.0191L178.237 64.0517L180.114 55.2189ZM173.443 38.4514L197.579 43.5795L196.808 47.2085L172.672 42.0804L173.443 38.4514ZM170.896 51.1135L194.792 56.1907L194.036 59.7512L170.139 54.674L170.896 51.1135ZM177.116 42.3806L181.67 43.3481L179.539 53.3792L174.985 52.4117L177.116 42.3806ZM188.106 44.7156L192.625 45.6757L190.494 55.7068L185.975 54.7466L188.106 44.7156ZM203.184 59.1186L225.472 63.8539L224.715 67.4145L202.428 62.6792L203.184 59.1186ZM198.12 66.4512L226.809 72.5467L226.024 76.2442L197.334 70.1487L198.12 66.4512ZM206.167 45.082L228.18 49.7591L227.402 53.4223L210.01 49.7272L207.595 61.0935L202.973 60.1115L206.167 45.082ZM207.901 52.7498L225.977 56.5904L225.228 60.1167L207.152 56.2761L207.901 52.7498ZM237.105 50.0094L260.728 55.0283L260.008 58.4177L236.385 53.3987L237.105 50.0094ZM235.767 57.4895L258.91 62.4066L258.19 65.7959L235.046 60.8788L235.767 57.4895ZM240.861 52.2029L245.415 53.1703L243.655 61.4554L239.101 60.488L240.861 52.2029ZM251.851 54.5378L256.405 55.5052L254.644 63.7903L250.091 62.8229L251.851 54.5378ZM231.9 62.2141L260.556 68.3023L259.806 71.8286L231.151 65.7404L231.9 62.2141ZM244.521 61.9257L249.074 62.8931L248.128 67.3437L243.575 66.3763L244.521 61.9257ZM234.096 68.0478L256.007 72.703L254.334 80.5773L236.942 76.8822L236.309 79.8607L231.824 78.9078L233.104 72.8823L250.496 76.5774L250.831 75.0026L233.405 71.3002L234.096 68.0478ZM232.093 77.6411L254.792 82.4636L254.086 85.7845L231.388 80.9619L232.093 77.6411ZM288.103 60.0573L292.656 61.0247L285.899 92.8298L281.345 91.8624L288.103 60.0573ZM263.572 76.4929L266.379 77.0894C271.994 78.2823 276.522 79.0298 281.737 79.2431L281.403 83.0009C276.072 82.8342 271.379 82.0161 265.593 80.7869L262.786 80.1904L263.572 76.4929ZM267.363 58.4776L282.324 61.6563L279.72 73.9127L269.415 71.7233L267.902 78.8443L263.281 77.8624L265.557 67.1466L275.828 69.3287L276.897 64.2961L266.592 62.1066L267.363 58.4776ZM306.009 82.5395L310.562 83.5069L309.027 90.7306L304.474 89.7632L306.009 82.5395ZM311.75 66.799C318.529 68.2392 322.861 72.7736 321.741 78.0459C320.606 83.3867 314.812 85.7337 308.033 84.2935C301.255 82.8533 296.915 78.3532 298.05 73.0124C299.17 67.7401 304.972 65.3588 311.75 66.799ZM310.987 70.3938C306.639 69.47 303.219 70.7471 302.535 73.9653C301.837 77.2519 304.449 79.775 308.797 80.6988C313.145 81.6225 316.558 80.3797 317.256 77.093C317.94 73.8749 315.335 71.3176 310.987 70.3938ZM292.61 86.4911L321.3 92.5866L320.514 96.2841L291.824 90.1886L292.61 86.4911Z" fill="#757575"/>
<path d="M359.873 75.3417L364.221 76.2655L360.075 95.7799L355.727 94.8561L359.873 75.3417ZM353.697 74.602L357.977 75.5112L353.962 94.4094L349.682 93.5002L353.697 74.602ZM345.87 88.5396L352.238 89.8925L351.598 92.9052L345.23 91.5523L345.87 88.5396ZM339.975 84.9613L344.288 85.8778L343.001 91.9375L338.687 91.021L339.975 84.9613ZM333.762 85.5735L334.071 82.0968C338.179 82.9697 345.041 84.356 350.241 84.6378L349.909 87.7161C344.492 87.7817 337.904 86.4536 333.762 85.5735ZM337.296 92.0135L341.815 92.9736L341.378 95.0278L354.901 97.901L355.338 95.8468L359.857 96.807L357.558 107.625L334.997 102.832L337.296 92.0135ZM340.658 98.4171L340.258 100.3L353.781 103.173L354.181 101.29L340.658 98.4171ZM344.584 73.2025C348.692 74.0754 351.107 76.5206 350.496 79.3964C349.878 82.3064 346.67 83.5929 342.562 82.7201C338.419 81.8399 336.012 79.3605 336.63 76.4504C337.241 73.5746 340.442 72.3224 344.584 73.2025ZM343.922 76.318C342.142 75.9397 340.937 76.2205 340.705 77.316C340.457 78.4801 341.451 79.1921 343.231 79.5704C344.977 79.9413 346.209 79.7021 346.456 78.538C346.689 77.4425 345.668 76.6889 343.922 76.318ZM382.144 90.4143L390.498 92.1891L389.72 95.8523L381.366 94.0775L382.144 90.4143ZM375.103 81.1178L378.8 81.9034L377.825 86.491C376.131 94.468 371.862 101.254 365.272 102.967L363.209 98.6999C369.149 97.35 372.848 91.7309 374.128 85.7054L375.103 81.1178ZM376.061 81.3215L379.69 82.0925L378.716 86.6801C377.435 92.7056 378.5 98.9788 383.243 102.42L379.768 105.474C374.422 101.333 373.406 93.8176 375.087 85.9091L376.061 81.3215ZM390.348 81.7806L394.867 82.7408L388.11 114.546L383.59 113.586L390.348 81.7806ZM421.5 88.3993L426.087 89.374L419.33 121.179L414.742 120.204L421.5 88.3993ZM400.797 86.6484L405.316 87.6086L403.679 95.3116L410.218 96.7009L411.855 88.9979L416.374 89.958L411.726 111.835L396.149 108.525L400.797 86.6484ZM402.93 98.8379L401.446 105.822L407.985 107.211L409.469 100.227L402.93 98.8379ZM442.639 94.8227L446.61 95.6665L446.123 97.9603C444.661 104.842 438.47 109.895 429.912 109.759L428.76 105.578C436.177 105.866 441.184 101.67 442.151 97.1165L442.639 94.8227ZM443.563 95.0191L447.5 95.8556L447.013 98.1494C446.024 102.805 448.879 108.565 455.807 111.325L453.055 114.676C445.18 111.321 441.592 104.297 443.076 97.3129L443.563 95.0191ZM426.153 114.65L454.843 120.745L454.057 124.442L425.368 118.347L426.153 114.65Z" fill="black"/>
</svg>
